<?xml version="1.0" standalone="no"?>
<!DOCTYPE svg PUBLIC "-//W3C//DTD SVG 1.1//EN" "http://www.w3.org/Graphics/SVG/1.1/DTD/svg11.dtd" >
<!--
2013-9-30: Created.
-->
<svg>
<metadata>
Created by iconfont
</metadata>
<defs>

<font id="iconfont" horiz-adv-x="1024" >
  <font-face
    font-family="iconfont"
    font-weight="500"
    font-stretch="normal"
    units-per-em="1024"
    ascent="896"
    descent="-128"
  />
    <missing-glyph />
    
    <glyph glyph-name="zhida" unicode="&#58889;" d="M724.957183 31.408729 724.957183 31.408729l-49.205679 49.205679L724.957183 31.408729zM506.808768 434.852314c-88.74009-2.980891-98.979292-93.430926-98.979292-93.430926-3.837398-39.247886 20.903076-69.537749 20.903076-69.537749 37.547151-44.36851 86.181825-37.972846 86.181825-37.972846 43.938722 0 68.258617 29.868261 68.258617 29.868261 25.599028 22.182208 26.450419 69.112054 26.450419 69.112054 0 31.568996-12.374842 49.060369-12.374842 49.060369C569.519018 436.984884 506.808768 434.852314 506.808768 434.852314zM510.791475 26.573607c0 0 66.408479-8.388041 164.960029 54.041824-76.224032 85.324294-156.997684 82.480526-156.997684 82.480526-97.967242 7.141654-162.971745-66.716494-175.324074-82.007759C343.512634 81.015543 413.720649 19.753271 510.791475 26.573607zM343.429747 81.087175l-0.002047 0.002047-57.326637-40.862663 55.175647 38.108946C341.27671 78.336528 342.012468 79.333228 343.429747 81.087175zM955.342294 659.828228l0-721.308073c0-48.060599-38.960337-87.020936-87.020936-87.020936L146.970306-148.50078c-48.060599 0-87.021959 38.960337-87.021959 87.020936l0 721.308073c0 48.060599 38.960337 87.021959 87.021959 87.021959l721.351052 0C916.381957 746.849164 955.342294 707.888827 955.342294 659.828228zM771.393795 81.086152c0.025583 0.035816 50.262754 67.938322 57.514925 104.190991 0 0 23.325241 73.80596 19.768229 121.587196 0 0-3.557012 133.10553-79.495542 206.91149 0 0-98.125855 124.287701-250.856351 124.287701 0 0-151.023622 7.538697-247.013837-99.54211 0 0-39.675628-41.811268-58.019415-75.515904 0 0-48.353264-84.326571-43.803645-169.509648 0 0-2.272763-74.087369 21.048385-117.885897 0 0 26.165939-77.930907 95.563496-135.38341 106.513896-91.298356 222.951815-84.760452 222.951815-84.760452 128.928395 1.851161 215.871559 75.914994 215.903282 75.9416l58.303894-58.304917c0 0 34.131355-28.439726 54.039777-5.686513 0 0 25.594935 21.044292 0 48.350195L771.393795 81.086152zM515.342118 567.106454c-121.588219 5.54325-202.222701-84.47188-202.222701-84.47188-82.765005-75.93853-74.232678-189.138708-74.232678-189.138708l0.00307 0c-4.553713-77.786621 50.766221-160.695912 50.766221-160.695912 2.986007-8.102538 8.53335-3.838422 8.53335-3.838422 32.847106 52.903907 96.41591 76.79299 96.41591 76.79299l1.279133 3.414773c-67.831898 55.034431-58.872852 132.252093-58.872852 132.252093 5.40408 68.548212 51.478442 111.205754 51.478442 111.205754 54.608735 51.192939 120.56082 50.626028 120.56082 50.626028 47.183626 6.255471 101.284801-32.993438 101.284801-32.993438 68.829622-43.231617 69.397556-137.087215 69.397556-137.087215 2.272763-78.497818-57.45455-124.573203-57.45455-124.573203-5.120624-3.412726 1.705851-5.117554 1.705851-5.117554 32.992415 2.273786 85.324294-60.865229 85.324294-60.865229l29.211299-28.950356-16.279778 16.135492c13.638625 3.824095 41.819454 75.101465 41.819454 75.101465 14.506389 31.142278 15.359826 103.243409 15.359826 103.243409-2.13257 98.977245-77.644381 176.195931-77.644381 176.195931C620.290355 570.944875 515.342118 567.106454 515.342118 567.106454z"  horiz-adv-x="1024" />

    
    <glyph glyph-name="fangdajing" unicode="&#58895;" d="M961.341938-138.20939c-11.211343-11.005658-29.443589-11.005658-40.663118 0L690.544419 88.282041c-64.236-51.257407-145.998165-82.105996-235.123019-82.105996-206.29546 0-373.535415 164.56708-373.535415 367.641171 0 202.998367 167.239955 367.574656 373.535415 367.574656 206.294436 0 373.538485-164.577313 373.538485-367.574656 0-94.944396-36.888142-181.199898-96.90812-246.405993l229.290173-225.581712C972.566584-109.249825 972.566584-127.130054 961.341938-138.20939L961.341938-138.20939zM455.420377 684.804063c-174.532035 0-316.103378-139.265834-316.103378-310.986847 0-171.797761 141.576459-311.062572 316.103378-311.062572 174.60162 0 316.112588 139.265834 316.112588 311.062572C771.533988 545.538229 630.021997 684.804063 455.420377 684.804063L455.420377 684.804063zM455.420377 684.804063"  horiz-adv-x="1024" />

    
    <glyph glyph-name="xitongmiaobiao" unicode="&#59657;" d="M504.291556 625.916444C703.943111 625.916444 866.360889 463.498667 866.360889 263.847111 866.360889 64.195556 703.943111-98.222222 504.291556-98.222222 304.64-98.222222 142.222222 64.195556 142.222222 263.847111 142.222222 463.498667 304.64 625.916444 504.291556 625.916444M504.291556 682.805333C272.896 682.805333 85.333333 495.242667 85.333333 263.847111 85.333333 32.451556 272.896-155.111111 504.291556-155.111111 735.687111-155.111111 923.249778 32.451556 923.249778 263.847111 923.249778 495.242667 735.687111 682.805333 504.291556 682.805333M801.248518 639.623629 882.571184 558.300963C893.679431 547.192716 911.689458 547.192716 922.797705 558.300963 933.905951 569.409209 933.905951 587.419235 922.797705 598.527482L841.475038 679.850148C830.366791 690.958395 812.356764 690.958395 801.248518 679.850148 790.140271 668.741902 790.140271 650.731876 801.248518 639.623629L801.248518 639.623629ZM839.112903 634.88431 779.863125 575.662977C768.752213 564.557398 768.747887 546.547372 779.853468 535.436459 790.959047 524.325546 808.969071 524.321222 820.079986 535.426801L879.329764 594.648134C890.440676 605.753713 890.445002 623.763739 879.33942 634.874652 868.233842 645.985565 850.223818 645.989889 839.112903 634.88431L839.112903 634.88431ZM474.993778 742.538667 474.993778 675.836444C474.993778 660.127012 487.728791 647.392 503.438222 647.392 519.147654 647.392 531.882667 660.127012 531.882667 675.836444L531.882667 742.538667C531.882667 758.2481 519.147654 770.983111 503.438222 770.983111 487.728791 770.983111 474.993778 758.2481 474.993778 742.538667L474.993778 742.538667ZM475.847111 517.969778 475.847111 323.836444C475.847111 308.127013 488.582124 295.392 504.291556 295.392 520.000987 295.392 532.736 308.127013 532.736 323.836444L532.736 517.969778C532.736 533.679211 520.000987 546.414222 504.291556 546.414222 488.582124 546.414222 475.847111 533.679211 475.847111 517.969778L475.847111 517.969778ZM502.983111 205.564444C538.17224 205.564444 566.698667 234.090871 566.698667 269.28 566.698667 304.469129 538.17224 332.995556 502.983111 332.995556 467.793983 332.995556 439.267556 304.469129 439.267556 269.28 439.267556 234.090871 467.793983 205.564444 502.983111 205.564444Z"  horiz-adv-x="1024" />

    
    <glyph glyph-name="camera" unicode="&#58888;" d="M512 491.968c-141.408 0-256-114.592-256-256s114.592-256 256-256c141.376 0 256 114.624 256 256s-114.624 256-256 256zM657.76 111.008c-68.992-80.512-190.176-89.824-270.688-20.8-80.544 68.992-89.824 190.208-20.8 270.688 68.96 80.544 190.176 89.824 270.688 20.8 80.48-68.96 89.792-190.208 20.8-270.688zM512 363.968c8.832 0 16-7.168 16-16s-7.168-16-16-16c-53.024 0-95.968-42.976-96-95.968l0-0.064c0-8.8-7.168-16-16-16s-16 7.2-16 16l0 0.064c0.032 70.656 57.312 127.968 128 127.968zM943.744 522.656l-138.688 23.136-43.936 109.888c-14.688 36.64-49.696 60.32-89.12 60.32l-320 0c-39.424 0-74.432-23.68-89.152-60.352l-43.904-109.856-138.656-23.136c-46.528-7.712-80.288-47.52-80.288-94.656l0-480c0-52.928 43.072-96 96-96l832 0c52.928 0 96 43.072 96 96l0 480c0 47.136-33.76 86.944-80.256 94.656zM960-52c0-17.696-14.304-32-32-32l-832 0c-17.696 0-32 14.304-32 32l0 480c0 15.648 11.328 28.992 26.752 31.552l174.208 29.024 57.312 143.296c4.896 12.128 16.64 20.128 29.728 20.128l320 0c13.056 0 24.8-7.968 29.696-20.128l57.312-143.296 174.24-29.024c15.424-2.56 26.752-15.904 26.752-31.552l0-480z"  horiz-adv-x="1024" />

    
    <glyph glyph-name="jian" unicode="&#58898;" d="M192 448 832 448C867.328 448 896 419.328 896 384 896 348.672 867.328 320 832 320L192 320C156.608 320 128 348.672 128 384 128 419.328 156.608 448 192 448Z"  horiz-adv-x="1024" />

    
    <glyph glyph-name="jiaobiao" unicode="&#58899;" d="M0-128 1024 896 1024-128Z"  horiz-adv-x="1024" />

    
    <glyph glyph-name="iconfontduihaocopy" unicode="&#58900;" d="M413.524-84.619c0 0 145.901 273.755 313.772 510.574 129.546 182.785 291.054 342.802 291.054 342.802l-33.703 91.119c0 0-191.584-129.446-346.729-288.32-157.531-161.211-278.527-352.148-278.527-352.148l-237.914 216.638-97.283-100.663 389.331-420.001z"  horiz-adv-x="1024" />

    
    <glyph glyph-name="xingxing" unicode="&#58903;" d="M511.50779 809.64933 364.984668 546.876578 65.845661 489.571431 267.77058 278.770354 228.884944-29.244812 512 98.668463 765.097392-29.244812 748.724493 272.630517 957.170942 487.524818 648.440485 545.853271Z"  horiz-adv-x="1024" />

    
    <glyph glyph-name="xiangguan" unicode="&#59077;" d="M843.676672 535.513088c-9.746432 4.180992-21.11488 8.476672-32.129024 12.416 2.31424 11.836416 4.406272 23.095296 5.341184 34.265088 11.346944 92.941312-7.656448 165.812224-59.1872 196.67456l-1.869824 1.045504c-52.201472 30.394368-125.31712 10.569728-201.101312-46.058496-9.166848-6.764544-17.977344-14.508032-27.255808-21.9392-9.279488 7.431168-17.980416 15.174656-27.25888 21.9392-74.628096 56.027136-147.2768 75.874304-199.832576 46.748672l-1.512448-0.690176c-52.578304-30.394368-72.070144-103.733248-60.811264-197.71904 1.626112-11.169792 3.115008-22.428672 5.4528-34.265088-11.015168-3.939328-21.940224-8.235008-32.487424-12.416-87.020544-37.024768-140.869632-90.604544-140.869632-151.414784 0-60.923904 53.848064-114.302976 140.869632-151.906304 10.546176-4.048896 21.471232-8.23296 32.487424-12.306432-2.337792-11.370496-3.826688-22.962176-5.4528-33.997824-11.25888-94.009344 8.23296-167.079936 61.034496-197.496832 52.800512-30.640128 125.915136-11.148288 201.122816 46.058496 9.279488 6.740992 17.980416 13.927424 27.25888 21.605376 9.279488-7.677952 18.08896-14.864384 27.255808-21.605376 75.784192-57.206784 148.89984-76.698624 201.101312-46.30528l0 0.24576c52.80256 30.416896 72.403968 103.488512 61.057024 197.496832-0.934912 11.035648-3.026944 22.628352-5.341184 33.997824 11.014144 4.073472 22.382592 8.256512 32.129024 12.306432 87.048192 37.603328 140.89216 90.9824 140.89216 151.906304C984.568832 444.908544 930.724864 498.489344 843.676672 535.513088L843.676672 535.513088zM580.498432 699.0336 580.498432 699.0336c61.27616 46.08 118.017024 64.171008 153.971712 43.276288l0.603136-0.222208c35.489792-21.138432 47.92832-78.789632 38.293504-154.79808-0.6912-8.476672-2.313216-17.288192-3.381248-26.011648-38.872064 10.324992-81.329152 18.802688-126.340096 24.1664-27.057152 36.068352-55.581696 69.020672-83.661824 96.877568C566.56896 688.018432 573.889536 693.915648 580.498432 699.0336L580.498432 699.0336zM347.021312 281.165824 347.021312 281.165824l0.466944-1.045504c10.102784-17.068032 19.848192-32.975872 29.950976-48.953344-29.372416 4.983808-57.00608 11.124736-83.217408 17.980416 6.720512 26.32192 15.218688 53.578752 26.211328 81.435648C328.465408 314.119168 337.519616 297.63072 347.021312 281.165824L347.021312 281.165824zM294.2208 518.5792 294.2208 518.5792c26.211328 7.433216 53.844992 13.351936 83.439616 18.225152-10.324992-15.664128-20.0704-32.132096-30.173184-48.864256-9.521152-16.821248-18.80064-33.753088-27.056128-50.240512C309.439488 465.200128 300.941312 492.836864 294.2208 518.5792L294.2208 518.5792zM342.61504 383.875072 342.61504 383.875072c12.439552 27.035648 26.811392 54.892544 42.47552 82.149376 15.6672 27.61216 32.709632 53.470208 49.998848 77.966336 29.617152 2.916352 60.455936 4.4288 92.386304 4.4288 31.906816 0 62.903296-1.512448 92.494848-4.4288 17.155072-24.496128 34.22208-50.354176 49.887232-77.966336l0.79872-1.045504c15.442944-27.0336 29.372416-54.068224 41.653248-80.879616-12.52352-27.25888-26.65472-54.784-42.697728-82.172928l-0.46592-0.666624c-15.44192-27.300864-32.24064-53.046272-49.174528-77.298688-29.591552-2.557952-60.588032-4.629504-92.494848-4.629504-31.930368 0-62.769152 2.070528-92.386304 4.629504-17.288192 24.475648-34.330624 50.463744-49.998848 77.966336l-0.487424 1.068032C368.847872 330.138624 355.054592 357.397504 342.61504 383.875072L342.61504 383.875072zM706.392064 278.83008 706.392064 278.83008l1.42336 1.291264c9.280512 16.733184 18.424832 33.997824 26.65472 50.46272 10.927104-27.856896 19.627008-55.113728 26.012672-81.435648-25.409536-6.854656-53.736448-12.995584-83.10784-17.980416C687.388672 246.588416 696.891392 262.586368 706.392064 278.83008L706.392064 278.83008zM708.25984 487.140352 708.25984 487.140352l-0.44544 0.799744c-9.877504 16.73216-20.204544 33.199104-30.440448 48.864256 29.372416-4.873216 57.698304-10.791936 83.10784-18.225152-6.385664-25.74336-15.085568-53.379072-26.012672-80.879616C726.240256 453.58592 717.31712 470.429696 708.25984 487.140352L708.25984 487.140352zM527.474688 653.41952 527.474688 653.41952c19.600384-18.557952 38.647808-40.163328 57.20576-63.347712-18.557952 1.624064-37.6064 1.624064-57.20576 1.624064-19.49184 0-38.540288 0-57.428992-1.624064C489.179136 613.256192 508.205056 634.861568 527.474688 653.41952L527.474688 653.41952zM320.431104 742.310912 320.431104 742.310912l1.068032 0.466944c36.535296 19.825664 92.251136 1.84832 152.94976-43.743232 6.720512-5.117952 13.930496-11.016192 20.873216-16.71168-28.54912-27.856896-56.962048-60.81024-84.243456-96.877568-45.011968-5.362688-87.266304-13.841408-125.893632-24.1664-1.73568 8.723456-2.803712 17.536-3.849216 26.011648C272.059392 663.299072 284.474368 721.439744 320.431104 742.310912L320.431104 742.310912zM253.010944 262.586368 253.010944 262.586368c-8.675328 3.383296-17.043456 6.163456-24.695808 9.745408-70.580224 30.396416-114.658304 69.645312-114.658304 111.767552 0 41.76384 44.07808 81.458176 114.658304 111.496192 7.653376 3.381248 16.464896 6.519808 24.695808 10.102784 10.34752-39.205888 24.254464-79.835136 42.276864-121.598976C277.265408 341.976064 263.358464 301.704192 253.010944 262.586368L253.010944 262.586368zM474.44992 69.271552 474.44992 69.271552c-61.27616-46.190592-117.438464-64.171008-154.017792-43.522048-35.95776 20.537344-48.372736 78.456832-39.094272 154.932224 1.045504 8.209408 2.113536 17.289216 3.849216 26.322944 38.627328-10.790912 80.881664-19.136512 125.893632-24.254464 27.281408-36.535296 55.693312-69.511168 84.243456-97.011712C488.379392 79.8208 481.170432 74.125312 474.44992 69.271552L474.44992 69.271552zM527.474688 114.751488 527.474688 114.751488c-19.269632 18.581504-38.295552 39.918592-57.428992 63.371264 18.888704-1.512448 37.936128-2.091008 57.428992-2.091008 19.600384 0 38.647808 0.57856 57.20576 2.091008C566.122496 154.671104 547.075072 133.334016 527.474688 114.751488L527.474688 114.751488zM734.470144 25.749504 734.470144 25.749504c-35.954688-20.64896-92.695552-2.668544-153.971712 43.165696-6.607872 5.209088-13.929472 10.904576-20.514816 16.823296 28.080128 27.500544 56.604672 60.47744 83.661824 97.011712 45.010944 5.116928 87.468032 13.462528 126.340096 24.254464 1.068032-9.033728 2.690048-18.113536 3.381248-26.322944C783.000576 104.20736 770.563072 46.286848 734.470144 25.749504L734.470144 25.749504zM826.744832 272.330752 826.744832 272.330752c-7.76704-3.581952-16.265216-6.362112-24.721408-9.745408-10.10176 39.117824-24.25344 79.389696-42.22976 121.288704 17.977344 41.987072 32.128 82.61632 42.22976 121.822208 8.456192-3.582976 16.954368-6.720512 24.721408-10.102784 70.556672-30.036992 114.302976-69.732352 114.302976-111.496192C941.047808 341.976064 897.301504 302.727168 826.744832 272.330752L826.744832 272.330752z"  horiz-adv-x="1024" />

    
    <glyph glyph-name="naozhong" unicode="&#58928;" d="M820.55296 20.992c11.31136-11.2832 22.27328-22.21312 33.21472-33.15456 18.6048-18.5984 37.39136-37.02144 55.75296-55.86048 18.84544-19.32928 10.47168-50.4832-15.264-57.02272-13.1328-3.33312-24.43904 0.61312-34.0096 10.22336-29.83552 29.96224-59.79136 59.79136-89.62048 89.76128-1.78816 1.79456-2.84928 4.31488-3.50848 5.32864-170.93248-96.95872-339.50464-96.94464-509.00608-0.76544-1.1904-1.13536-3.0784-2.84928-4.88704-4.65792-30.23872-30.21056-60.32256-60.59136-90.74816-90.61504-18.80576-18.54976-49.33376-11.17056-56.74112 13.5424-4.07936 13.60256-0.34944 25.40032 9.6576 35.38816 27.4368 27.37536 54.79808 54.81728 82.26048 82.16448 1.81504 1.80864 4.18048 3.0592 6.38464 4.64512C90.21824 122.36672 31.98592 248.10112 36.77824 399.99104c4.20736 133.16736 57.39264 245.43744 155.34592 335.70048C381.10976 909.84448 678.09152 898.80064 856.61184 711.65824 1041.93408 517.38368 1031.56224 201.6832 820.55296 20.992L820.55296 20.992zM104.02304 383.66592c0.02688-224.5888 182.49984-407.80672 406.2592-407.93344 226.77888-0.1216 409.09056 181.26848 409.4528 407.39584 0.36352 225.36064-182.6816 408.66048-407.8528 408.41088C286.59584 791.29088 103.99744 608.68352 104.02304 383.66592L104.02304 383.66592zM104.02304 383.66592M201.06368 894.21056c5.92128-1.12896 12.14464-1.46432 17.71008-3.54816 14.61888-5.46432 23.42912-21.21856 20.95488-36.0448-2.78912-16.65536-15.73376-28.70016-32.25472-28.99584-30.47424-0.5504-58.38592-8.8256-82.67776-27.40224-35.85536-27.42784-53.66784-64.1792-54.83136-109.1712-0.35584-13.99424-6.94912-24.20224-19.4304-30.21696-12.02304-5.79456-23.82592-4.4032-34.5536 3.39328-9.59104 6.9632-14.15424 16.81024-13.8048 28.59776C4.288 762.71232 34.79552 819.33824 94.2912 859.81184 126.3104 881.59488 162.23488 892.02048 201.06368 894.21056L201.06368 894.21056zM201.06368 894.21056M1021.74208 692.91904c0.41088-5.37728-0.2688-14.58432-6.048-22.7776-8.57088-12.14592-23.78112-17.51552-37.90848-13.22112-14.14016 4.30208-23.81184 16.96512-24.02688 32.90624-0.33664 25.49376-6.56768 49.31968-20.27904 70.7392-26.77632 41.85344-65.42976 63.23968-115.01056 64.89344-24.52608 0.81408-40.49536 22.81856-32.67328 45.19424 4.86016 13.89952 17.62432 23.01312 33.10336 22.58944 76.02176-2.07744 134.28224-35.58272 174.33344-100.09856C1011.4048 763.87456 1020.19072 731.48544 1021.74208 692.91904L1021.74208 692.91904zM1021.74208 692.91904M478.08256 485.83424c0.00512 33.82016-0.1088 67.648 0.06016 101.46816 0.08064 15.29856 9.03296 27.63136 22.73152 32.32128 13.48992 4.62464 28.47616 0.32384 37.48352-10.82112 5.73312-7.07712 7.71584-15.30368 7.70176-24.29696-0.06656-59.8912 0.02688-119.78368-0.1408-179.67744-0.01152-5.0816 1.35808-8.66304 5.00864-12.29184 39.99744-39.72864 79.86048-79.58528 119.64288-119.52256 15.22944-15.29856 14.86592-37.96736-0.48512-51.10784-13.30688-11.392-32.48896-11.07712-45.53472 1.19552-9.40288 8.84608-18.35008 18.18112-27.48288 27.3152-35.05024 35.04384-69.93408 70.24384-105.24032 105.0176-9.72032 9.57184-14.12096 20.224-13.90592 33.86112C478.4192 421.472 478.08256 453.65248 478.08256 485.83424L478.08256 485.83424zM478.08256 485.83424"  horiz-adv-x="1024" />

    
    <glyph glyph-name="iconselected" unicode="&#58906;" d="M1010.424 724.848C993.432 740.696 966.648 739.944 950.72 722.992L387.304 125.92 79.536 427.76C62.888 444.072 36.144 443.904 19.752 427.336 3.36 410.816 3.568 384.152 20.216 367.88L358.832 35.848C358.96 35.728 359.128 35.68 359.256 35.552 359.384 35.432 359.424 35.256 359.552 35.136 362.208 32.608 365.424 31.184 368.504 29.496 370.032 28.616 371.336 27.312 372.944 26.68 377.928 24.752 383.208 23.736 388.448 23.736 393.984 23.736 399.52 24.832 404.672 27.024 406.408 27.736 407.752 29.208 409.36 30.128 412.528 31.976 415.824 33.536 418.528 36.272 418.656 36.392 418.696 36.608 418.824 36.736 418.912 36.856 419.08 36.904 419.208 37.024L1012.24 665.432C1028.288 682.288 1027.408 708.904 1010.424 724.848L1010.424 724.848Z"  horiz-adv-x="1024" />

    
    <glyph glyph-name="cha" unicode="&#58948;" d="M873.468588-38.457638 511.907902 323.098955 150.412708-38.396239c-16.812921-16.813944-44.102451-16.935718-60.97677-0.061398-16.785292 16.785292-16.692171 44.131103 0.094144 60.94914l361.523847 361.495194-361.523847 361.528963c-16.819061 16.812921-16.785292 44.191478 0 60.97677 16.842597 16.842597 44.131103 16.814967 60.97677-0.032746l361.496218-361.495194L873.497241 806.459684c16.84669 16.84669 44.102451 16.84669 60.915371 0.032746 16.876366-16.879436 16.814967-44.073798-0.027629-60.915371L572.885695 384.076748l361.561709-361.556593c16.874319-16.84669 16.874319-44.131103 0.027629-60.946071C917.688719-55.331957 890.344954-55.331957 873.468588-38.457638L873.468588-38.457638zM873.468588-38.457638"  horiz-adv-x="1024" />

    
    <glyph glyph-name="toutiaofenxiang" unicode="&#59236;" d="M64.012 383.975c0-247.41 200.59-447.964 448.008-447.964 247.416 0 447.968 200.554 447.968 447.964h64.012c0-282.762-229.215-511.975-511.98-511.975-282.76 0-512.020 229.213-512.020 511.975 0 282.756 229.26 512.025 512.020 512.025v-64.023c-247.418 0-448.008-200.588-448.008-448.002v0zM964.774 825.577v6.4h-6.4l6.4-6.4zM1007.987 575.97h-31.992c-8.85 0-16.007 7.158-16.007 16.012v192.214l-443.206-443.163c-6.589-6.628-17.275-6.628-23.92 0l-23.918 23.918c-6.578 6.589-6.578 17.286 0 23.908l443.177 443.123h-192.132c-8.82 0-15.978 7.152-15.978 16.018v31.981c0 8.86 7.158 16.018 15.978 16.018h287.997c8.855 0 16.013-7.158 16.013-16.018v-287.999c0-8.855-7.158-16.012-16.013-16.012v0z"  horiz-adv-x="1024" />

    
    <glyph glyph-name="baoming" unicode="&#58884;" d="M852.288 186.261c10.111 0 18.314 7.639 18.314 17.079 0 9.473-8.204 17.116-18.314 17.116h-65.846l55.582 61.015c4.814 5.281 2.846 14.684-4.384 20.937-7.264 6.255-17.042 7.077-21.855 1.798l-56.819-62.365-56.8 62.365c-4.831 5.279-14.605 4.455-21.834-1.798-7.25-6.254-9.217-15.655-4.385-20.937l55.548-61.015h-50.117c-10.112 0-18.316-7.643-18.316-17.116 0-9.44 8.205-17.079 18.316-17.079h60.603v-34.196h-60.603c-10.112 0-18.316-7.679-18.316-17.119 0-9.438 8.205-17.116 18.316-17.116h60.603v-46.82c0-7.977 7.865-14.458 17.53-14.458 9.699 0 17.548 6.481 17.548 14.458v46.82h75.23c10.111 0 18.314 7.679 18.314 17.116 0 9.439-8.204 17.119-18.314 17.119h-75.23v34.196h75.23zM263.979 562.092c0 112.327 93.711 203.718 208.923 203.718 115.214 0 208.924-91.39 208.924-203.718 0-35.133-9.174-68.204-25.262-97.084 14.251 5.244 29.027 9.476 44.217 12.586 10.26 26.257 16.103 54.686 16.103 84.498 0 131.391-109.218 237.915-243.981 237.915-134.763 0-244.019-106.523-244.019-237.915 0-96.297 58.767-178.997 143.116-216.453-177.2-43.073-314.097-190.796-337.45-371.139h34.589c27.57 195.923 200.611 349.677 408.523 349.677 0.243 0 0.469 0 0.693 0v0.225c5.675 0.113 11.236 0.71 16.817 1.199 7.136 13.298 15.244 25.995 24.292 38.018-14.983-3.334-30.526-5.282-46.558-5.282-115.213 0-208.924 91.428-208.924 203.756zM760.222 9.323c-105.809 0-191.883 83.936-191.883 187.127 0 103.15 86.074 187.087 191.883 187.087 105.773 0 191.843-83.936 191.843-187.087 0-103.189-86.070-187.127-191.843-187.127zM760.222 417.734c-125.364 0-226.976-99.070-226.976-221.285 0-122.218 101.614-221.324 226.976-221.324 125.324 0 226.94 99.106 226.94 221.324 0 122.214-101.616 221.285-226.94 221.285z"  horiz-adv-x="1024" />

    
    <glyph glyph-name="weibiaoti1" unicode="&#58907;" d="M817.028-86.993h-636.463c-22.854 0-64.186 10.054-64.186 58.74v118.784h-32.442c-17.222 0-31.185 12.893-31.185 28.765 0 15.919 13.964 28.765 31.185 28.765h32.489v118.039h-32.489c-17.222 0-31.185 12.847-31.185 28.812 0 15.825 13.964 28.719 31.185 28.719h32.489v118.924h-31.837c-17.222 0-31.185 12.847-31.185 28.812 0 15.872 13.964 28.765 31.185 28.765h31.837v118.225h-34.816c-17.222 0-31.185 12.893-31.185 28.812 0 15.872 13.964 28.765 31.185 28.765h34.816v116.922c0 29.417 19.921 60.649 65.722 60.649h634.88c52.829 0 95.558-39.471 95.558-88.204v-764.183c-0.047-48.687-42.775-88.111-95.558-88.111zM180.24 794.671c-0.093-0.512-0.14-1.117-0.14-1.815v-116.922h30.906c17.222 0 31.185-12.847 31.185-28.765 0-15.919-13.964-28.812-31.185-28.812h-30.906v-118.272h33.885c17.222 0 31.185-12.893 31.185-28.765 0-15.919-13.964-28.812-31.185-28.812h-33.885v-118.924h33.187c17.222 0 31.185-12.893 31.185-28.719 0-15.965-13.964-28.812-31.185-28.812h-33.187v-118.039h33.187c17.222 0 31.185-12.847 31.185-28.765 0-15.872-13.964-28.765-31.185-28.765h-33.187v-118.784c0.186 0 0.326 0 0.512 0h509.068v823.017h-507.578c-0.745 0-1.35 0-1.862-0.047zM848.912 765.3c0 16.244-14.336 29.417-31.93 29.417h-63.674v-823.017h63.674c17.594 0 31.93 13.172 31.93 29.417v764.183z"  horiz-adv-x="1024" />

    
    <glyph glyph-name="zhifubao" unicode="&#59075;" d="M1864.757895 608.561404c10.778947 0 16.168421-5.389474 16.168421-14.37193l-7.185965-59.284211H1518.035088v62.877193l116.77193 3.592983v-1.796492l114.975438 3.592983v1.796491l114.975439 3.592983z m114.975438-7.185965c-1.796491 30.540351-19.761404 46.708772-52.098245 46.708772l-177.852632-7.185965v53.894736H1688.701754c-37.726316 0-53.894737-7.185965-53.894736-19.761403v-37.726316l-116.77193-5.389474v21.557895c-71.859649 5.389474-105.992982-1.796491-105.992983-19.761403v-138.329825H1634.807018v-97.010526h-152.701755v-35.929825H1634.807018v-183.242105l114.975438 10.778947v172.463158h165.277193v37.726316l-165.277193-1.796491v97.010526h192.224562v17.964912h3.592982c10.778947 1.796491 17.964912 8.982456 25.150877 25.150878l8.982456 62.877193zM1365.333333 567.242105h-61.080701v127.550877h-61.080702c-35.929825 1.796491-53.894737-5.389474-52.098246-17.964912v-109.585965h-215.578947v-37.726316h213.782456v-366.48421h113.178947V529.515789H1365.333333v37.726316zM955.733333 694.792982c-35.929825 1.796491-52.098246-5.389474-52.098245-17.964912 0-53.894737-52.098246-116.77193-154.498246-186.835088l16.168421-23.354386 77.249123 35.929825 1.796491-312.589474 113.178948-14.371929V576.224561c32.336842 37.726316 48.505263 77.249123 50.301754 118.568421h-52.098246zM1814.45614 272.617544l30.540351-34.133333 32.336842-28.74386c7.185965-7.185965 14.37193-7.185965 19.761404 0l34.133333 28.74386 28.74386 34.133333c5.389474 5.389474 5.389474 12.575439 0 17.964912l-30.540351 34.133333-32.336842 28.74386c-5.389474 7.185965-12.575439 7.185965-19.761404 0l-32.336842-28.74386-30.540351-34.133333c-7.185965-7.185965-7.185965-12.575439 0-17.964912M1174.905263 410.947368l-37.726316 44.912281-44.91228 39.522807c-7.185965 7.185965-17.964912 7.185965-25.150878 0l-44.91228-39.522807-39.522807-44.912281c-8.982456-8.982456-8.982456-16.168421 0-25.150877l84.435087-82.638596c7.185965-7.185965 17.964912-7.185965 25.150878 0l44.91228 39.522807 37.726316 43.115789c8.982456 8.982456 8.982456 16.168421 0 25.150877M1947.396491 61.062737l44.912281 7.185965 28.74386 28.743859c16.168421 23.354386 41.319298 50.301754 80.842105 82.638597 41.319298 35.929825 57.487719 44.912281 43.115789 30.540351 7.185965 7.185965 12.575439 14.37193 10.778948 21.557895 0 5.389474-5.389474 8.982456-12.575439 7.185964l-26.947368-3.592982c-183.242105-37.726316-411.396491-62.877193-688.056141-75.452632-312.589474-12.575439-544.336842 1.796491-698.835087 44.912281-48.505263 14.37193-93.417544 26.947368-136.533334 39.522807-34.133333 12.575439-66.470175 21.557895-97.010526 32.336842-16.168421 5.389474-32.336842 10.778947-46.708772 16.168421-102.4 44.912281-185.038596 66.470175-244.322807 64.673684-55.691228 0-102.4-12.575439-140.126316-37.726315-39.522807-26.947368-59.284211-62.877193-57.487719-107.789474-1.796491-50.301754 19.761404-89.824561 61.080702-116.77193 28.74386-19.761404 64.673684-32.336842 105.992982-37.726316h7.185965c-32.336842 3.592982-61.080702 14.37193-86.231579 30.540351-34.133333 23.354386-52.098246 53.894737-52.098246 93.417544 0 77.249123 43.115789 116.77193 134.736843 123.957895h12.575438l88.02807-7.185965c28.74386-8.982456 55.691228-17.964912 77.249123-28.74386 10.778947-3.592982 41.319298-19.761404 91.621053-44.91228 21.557895-10.778947 44.912281-23.354386 71.859649-35.929825 1.796491-1.796491 7.185965-3.592982 10.778947-5.389474 71.859649-35.929825 140.126316-62.877193 208.392983-84.435087 249.712281-75.452632 652.126316-88.02807 1209.038596-37.726316M404.210526 673.235088v-68.266667H177.852632v-35.929825h224.561403V482.807018l-159.887719-1.796492v-37.726315l339.536842 1.796491c-16.168421-59.284211-43.115789-114.975439-86.231579-167.073684 30.540351-10.778947 61.080702-21.557895 95.214035-32.336843 61.080702 73.65614 98.807018 150.905263 107.789474 237.136843H515.592982v84.435087h233.54386v35.929825h-233.54386v86.231579l-59.28421 1.796491c-35.929825 1.796491-52.098246-5.389474-52.098246-17.964912M208.392982 58.835088h17.964913c107.789474 7.185965 203.003509 43.115789 283.845614 107.789473 7.185965 7.185965 16.168421 14.37193 23.354386 21.557895-3.592982 1.796491-7.185965 1.796491-10.778948 5.389474-26.947368 12.575439-52.098246 25.150877-71.859649 35.929824l-7.185965-7.185965c-35.929825-34.133333-77.249123-61.080702-120.364912-82.638596-41.319298-19.761404-77.249123-28.74386-105.992982-30.540351-95.214035 0-143.719298 35.929825-143.719299 105.992983 0 48.505263 35.929825 79.045614 107.789474 95.214035-91.621053-7.185965-134.736842-46.708772-134.736842-123.957895 0-39.522807 17.964912-70.063158 52.098246-93.417544 23.354386-16.168421 52.098246-26.947368 86.231578-30.540351h-12.575438c12.575439-3.592982 23.354386-3.592982 35.929824-3.592982M2109.080702 734.315789h-8.982456l-14.37193-35.929824-14.37193 35.929824h-8.982456v-43.115789h5.389474v35.929825l14.371929-35.929825h5.389474l14.37193 35.929825v-35.929825h7.185965zM2055.185965 728.926316V734.315789h-39.522807v-5.389473h16.168421v-37.726316h8.982456V728.926316z"  horiz-adv-x="2156" />

    
    <glyph glyph-name="weibo" unicode="&#58881;" d="M512.37963-127.256365A511.620932 511.620932 0 1 0 1023.256927 383.620932 511.620932 511.620932 0 0 0 512.37963-127.256365zM703.493844 419.129507a29.373585 29.373585 0 0 0-18.590877 7.994077 8.179986 8.179986 0 0 0-1.301361 9.853165l2.788631 4.46181a10.5968 10.5968 0 0 1 1.859088 2.602723l3.718175 7.622259a60.792167 60.792167 0 0 1 4.089993 11.526344 109.500265 109.500265 0 0 1 2.230906 14.129067 57.631718 57.631718 0 0 1 0 15.988154 66.927157 66.927157 0 0 1-5.391355 16.359971 55.772631 55.772631 0 0 1-11.340435 15.988154 61.163985 61.163985 0 0 1-33.09176 16.359972 126.603872 126.603872 0 0 1-40.89993 0 353.226661 353.226661 0 0 1-38.669024-7.994077q-18.590877-4.833628-29.931311-9.295438l-11.898162-5.391355a116.750707 116.750707 0 0 0-15.05861-3.532266 18.590877 18.590877 0 0 0-9.10953 0 24.354049 24.354049 0 0 0-5.019536 2.602722q-1.859088 1.301361-1.301362 6.13499t0 8.365894q0 3.532267 2.230906 11.154527t3.904084 12.827705a137.572489 137.572489 0 0 1-1.301362 19.892238A95.928925 95.928925 0 0 1 495.276023 597.787834a44.804013 44.804013 0 0 1-13.199523 18.590877 68.228518 68.228518 0 0 1-21.751326 11.526343 86.07576 86.07576 0 0 1-34.021304 2.602723 204.499646 204.499646 0 0 1-47.220828-10.5968 294.47949 294.47949 0 0 1-64.510342-31.60449 383.715699 383.715699 0 0 1-56.888084-43.502652q-24.16814-22.68087-44.060378-43.87447t-31.046764-34.76494l-10.039074-14.129066a293.921764 293.921764 0 0 1-44.432196-76.408504 159.695632 159.695632 0 0 1-13.57134-57.631718v-18.590877a185.908769 185.908769 0 0 1 26.770863-76.408504 189.998762 189.998762 0 0 1 50.939003-54.657178A297.45403 297.45403 0 0 1 261.030974 133.015912a461.797382 461.797382 0 0 1 76.780322-21.379509 689.721533 689.721533 0 0 1 77.709865-9.295438 480.016441 480.016441 0 0 1 139.431577 10.224982 427.590168 427.590168 0 0 1 134.597948 53.727634 220.859617 220.859617 0 0 1 87.748939 91.467114 137.572489 137.572489 0 0 1 15.988155 58.561263 85.889851 85.889851 0 0 1-9.481348 44.804013 114.70571 114.70571 0 0 1-25.841319 30.674947A130.136138 130.136138 0 0 1 728.405619 411.879065a104.666637 104.666637 0 0 1-24.911775 7.994077zM426.30387 143.054985a289.088136 289.088136 0 0 0-167.317892 37.181754q-68.600336 41.643564-68.600336 105.596181t68.228518 108.756629a320.320809 320.320809 0 0 0 167.317892 50.195368 319.948991 319.948991 0 0 0 167.317892-31.976308q68.228518-37.181754 68.228518-99.461192t-69.529879-115.077528a297.45403 297.45403 0 0 0-165.830622-55.77263z m-26.399045 245.957301a153.746552 153.746552 0 0 1-47.220828-12.08407A106.153907 106.153907 0 0 1 319.964054 356.106434a135.89931 135.89931 0 0 1-20.078147-25.65541 96.858469 96.858469 0 0 1-11.340435-27.14268 167.317892 167.317892 0 0 1-4.089993-24.354049q-0.929544-11.154526 0-17.289515V251.06798a60.42035 60.42035 0 0 1 1.859088-10.5968 71.01715 71.01715 0 0 1 5.019536-14.686793 62.465346 62.465346 0 0 1 10.410892-14.686793 63.580799 63.580799 0 0 1 17.289515-13.385431 173.452881 173.452881 0 0 1 111.545261-17.289515 141.476573 141.476573 0 0 1 83.658946 51.124911 78.4535 78.4535 0 0 1 16.73179 37.181754 102.249823 102.249823 0 0 1-1.859088 44.804013 112.846623 112.846623 0 0 1-20.449965 41.271747A92.954384 92.954384 0 0 1 465.53062 383.249114a144.265205 144.265205 0 0 1-65.997613 5.763172z m-32.719944-167.317892a42.759017 42.759017 0 0 0-10.410891 0 39.784477 39.784477 0 0 0-9.10953 1.859088l-8.179985 2.416814a18.590877 18.590877 0 0 0-6.878625 4.833628q-2.788632 3.160449-5.019537 6.134989a26.770863 26.770863 0 0 0-3.718175 7.064534 25.097684 25.097684 0 0 0-1.301361 8.365894 37.181754 37.181754 0 0 0 5.391354 18.590877 50.939003 50.939003 0 0 0 15.05861 15.988154 42.015382 42.015382 0 0 0 21.379509 7.62226 57.073992 57.073992 0 0 0 15.988154 0 40.342203 40.342203 0 0 0 13.199522-4.461811 46.84901 46.84901 0 0 0 9.481348-7.064533 23.424505 23.424505 0 0 0 5.94908-9.295438 37.181754 37.181754 0 0 0 1.859088-11.526344 33.091761 33.091761 0 0 0-5.949081-18.590877 51.124911 51.124911 0 0 0-15.988154-15.05861 47.406736 47.406736 0 0 0-21.751326-7.064533z m77.152139 63.952617a20.449965 20.449965 0 0 0-13.199522-4.089993 10.5968 10.5968 0 0 0-9.481348 5.763172l-1.859087 3.532266a7.808168 7.808168 0 0 0 0 3.532267v3.532267a9.667256 9.667256 0 0 0 0 4.46181l1.859087 3.532267a5.763172 5.763172 0 0 0 2.788632 2.602722l2.788632 3.532267a18.590877 18.590877 0 0 0 14.129066 4.46181 11.526344 11.526344 0 0 0 9.481347-7.064533 10.782709 10.782709 0 0 0 2.230905-7.994077 21.565417 21.565417 0 0 0-2.788631-8.365894 34.207213 34.207213 0 0 0-5.949081-7.62226z m322.737623 185.908769a18.590877 18.590877 0 0 1 10.039074 2.602722 22.68087 22.68087 0 0 1 10.968617 15.058611 3.532267 3.532267 0 0 1 0 2.602723q10.968617 101.320279-72.690329 115.449345a131.4375 131.4375 0 0 1-45.547648 0 18.590877 18.590877 0 0 1-10.968617-3.160449 28.258133 28.258133 0 0 1-7.808169-7.994077 18.590877 18.590877 0 0 1-3.160449-10.224982 20.264056 20.264056 0 0 1 6.320898-15.058611 21.379508 21.379508 0 0 1 15.430428-6.134989q70.831241 15.988154 76.408504-44.432196a73.062146 73.062146 0 0 0-1.859087-28.444041 20.264056 20.264056 0 0 1 6.320898-15.058611 21.379508 21.379508 0 0 1 15.430427-6.134989z m-15.430428 249.489568a279.978606 279.978606 0 0 1-107.269359-3.532267 2.788632 2.788632 0 0 1-1.859088 0v-1.859088a30.674947 30.674947 0 0 1-13.57134-51.496729 30.303129 30.303129 0 0 1 21.751326-8.923621h4.833628l6.878624 1.301362a42.944926 42.944926 0 0 1 7.808168 1.859087l7.250442 2.602723a37.181754 37.181754 0 0 0 12.269979 1.301362q9.10953 0 22.309052-1.301362a136.642945 136.642945 0 0 0 29.001768-6.692715 237.591407 237.591407 0 0 0 31.7904-13.385432 150.214285 150.214285 0 0 0 31.790399-22.123143 152.817008 152.817008 0 0 0 27.700407-32.905852 141.476573 141.476573 0 0 0 9.10953-101.320279 3.904084 3.904084 0 0 0 0-1.859088 28.815859 28.815859 0 0 1-1.301362-4.461811l-1.859087-6.692715a79.383044 79.383044 0 0 1-1.859088-7.994077 47.220827 47.220827 0 0 1 0-8.365895 19.892238 19.892238 0 0 1 4.46181-13.385431 24.539957 24.539957 0 0 1 11.340435-7.62226 51.682638 51.682638 0 0 1 15.988154-2.230905q25.469501 0 29.931312 30.11722a257.669554 257.669554 0 0 1 12.269979 66.183522 197.249204 197.249204 0 0 1-4.461811 55.772631 175.869695 175.869695 0 0 1-18.590876 44.804013 150.586103 150.586103 0 0 1-27.328589 35.508575A220.859617 220.859617 0 0 1 825.264088 690.742218a230.898691 230.898691 0 0 1-37.181754 18.590877 252.464108 252.464108 0 0 1-37.181754 11.526344z"  horiz-adv-x="1024" />

    
    <glyph glyph-name="arrow-down-new" unicode="&#59004;" d="M512.128 548.8c0.003 0 0.006 0 0.008 0 9.137 0 17.379-3.829 23.21-9.97l251.277-265.614c5.415-5.72 8.743-13.464 8.744-21.984 0-17.678-14.33-32.008-32.008-32.008-9.157 0-17.416 3.845-23.25 10.009l-228.045 241.103-228.224-241.088c-5.855-6.165-14.113-10.001-23.266-10.001-8.516 0-16.256 3.32-21.998 8.736-12.784 12.145-13.36 32.434-1.264 45.233l251.52 265.6c5.844 6.155 14.086 9.984 23.223 9.984 0.025 0 0.051 0 0.076 0z"  horiz-adv-x="1024" />

    
    <glyph glyph-name="left" unicode="&#58896;" d="M347.2 384.12800000000004c4.336808689942018e-19 0.003 8.673617379884035e-19 0.006 1.734723475976807e-18 0.008 1.7763568394002505e-15 9.137 3.8290000000000033 17.379 9.970000000000006 23.21l265.614 251.2769999999999c5.720000000000001 5.415 13.464000000000002 8.742999999999999 21.984 8.743999999999996 17.678-3.552713678800501e-15 32.008-14.330000000000005 32.007999999999996-32.008-1.7763568394002505e-15-9.157-3.8450000000000033-17.416-10.009000000000007-23.25l-241.10300000000004-228.04499999999993 241.08799999999997-228.22400000000002c6.164999999999999-5.855000000000001 10.000999999999996-14.113000000000001 10.000999999999998-23.266000000000002-8.881784197001252e-16-8.516-3.320000000000002-16.256-8.736000000000004-21.997999999999998-12.145000000000003-12.784-32.434-13.359999999999994-45.233-1.2639999999999958l-265.5999999999999 251.52c-6.155 5.844000000000001-9.983999999999998 14.086000000000004-9.983999999999996 23.222999999999995 3.469446951953614e-18 0.025 3.469446951953614e-18 0.05099999999999999 1.3877787807814457e-17 0.076z"  horiz-adv-x="1024" />

    
    <glyph glyph-name="check_box_unselecte" unicode="&#59328;" d="M904.533333-106.666667H119.466667C66.133333-106.666667 21.333333-61.866667 21.333333-8.533333V776.533333C21.333333 829.866667 66.133333 874.666667 119.466667 874.666667h782.933333C957.866667 874.666667 1002.666667 829.866667 1002.666667 776.533333v-782.933333c0-55.466667-44.8-100.266667-98.133334-100.266667zM119.466667 834.133333c-32 0-57.6-25.6-57.6-57.6v-782.933333c0-32 25.6-57.6 57.6-57.6h782.933333c32 0 57.6 25.6 57.6 57.6V776.533333c0 32-25.6 57.6-57.6 57.6H119.466667z"  horiz-adv-x="1024" />

    
    <glyph glyph-name="arrow-left-2" unicode="&#58901;" d="M251.22748565673822 361.07136154174816l270.82088470459-266.0253524780272c11.453504562377935-11.197042465209956 29.9736213684082-11.19704246520994 41.43021583557129 2.1955093992831465e-14 5.3038215637207005 5.177907943725589 8.592252731323235 12.399787902832035 8.592252731323228 20.388736724853516-2.744386749103933e-15 7.988948822021484-3.2892036437988343 15.211601257324215-8.58684539794923 20.38332939147949l-252.02344894409197 247.46506690978987 252.0188140869139 247.5569915771486c11.45659446716308 11.250343322753913 11.456594467163075 29.43675041198731-2.1955093992831465e-14 40.68400382995605-11.456594467163095 11.2503433227539-29.977483749389652 11.250343322753892-41.43021583557129-2.1955093992831465e-14l-270.8232021331786-265.9287929534914c-6.302633285522457-6.141185760498051-8.830175399780266-14.293899536132814-8.307209014892567-22.31220245361329-0.5237388610839796-7.961912155151367 2.0030307769775497-16.073684692382812 8.307209014892585-22.2110080718994zM455.13184738159185 383.28314208984364c-0.5762672424316367-7.9657745361328125 1.9999408721923928-16.073684692382812 8.208332061767578-22.211008071899414l270.82551956176763-266.02535247802723c11.453504562377935-11.197042465209956 29.9736213684082-11.19704246520994 41.525230407714844 2.744386749103933e-15 11.45427703857421 11.250343322753913 11.35771751403807 29.52790260314942-2.1955093992831465e-14 40.77747344970703l-252.1161460876466 247.45888710021956 252.11614608764637 247.55699157714855c11.357717514038079 11.250343322753912 11.454277038574201 29.43675041198731-2.1955093992831465e-14 40.68400382995605-11.552381515502933 11.2503433227539-30.072498321533203 11.250343322753885-41.525230407714844-2.744386749103933e-15l-270.8247470855711-265.9287929534914c-6.208391189575192-6.14041328430176-8.784599304199212-14.293899536132814-8.208332061767564-22.31220245361328zM455.13184738159185 383.28314208984364z"  horiz-adv-x="1024" />

    
    <glyph glyph-name="huakuai" unicode="&#58908;" d="M959.553 382.67999999999995c0-37.937-7.432-74.177-22.295-108.721-14.856-34.54-34.765-64.299-59.711-89.286-24.941-24.98-54.702-44.882-89.28-59.706-34.578-14.827-70.818-22.254-108.72-22.293H343.47c-37.941 0-74.181 7.43-108.72 22.293-34.54 14.859-64.304 34.765-89.28 59.706-24.985 24.946-44.887 54.706-59.711 89.286-14.828 34.58-22.255 70.818-22.294 108.72-0.04 37.903 7.391 74.144 22.294 108.721 14.897 34.579 34.8 64.34 59.71 89.28 24.903 24.947 54.669 44.848 89.281 59.711 34.612 14.864 70.858 22.295 108.72 22.295h336.075c37.942 0 74.182-7.431 108.722-22.295 34.543-14.863 64.303-34.764 89.284-59.71 24.98-24.942 44.883-54.702 59.711-89.28 14.825-34.578 22.252-70.819 22.29-108.721zM343.418 606.73c-30.364 0-59.319-5.902-86.879-17.702-27.553-11.8-51.397-27.765-71.525-47.893-20.127-20.122-36.094-43.966-47.893-71.525-11.798-27.559-17.702-56.52-17.702-86.874 0-30.362 5.904-59.318 17.702-86.877 11.8-27.56 27.765-51.403 47.893-71.53 20.128-20.123 43.97-36.09 71.525-47.888 27.559-11.799 56.52-17.702 86.879-17.702 30.357 0 59.313 5.903 86.873 17.702 27.558 11.798 51.402 27.765 71.53 47.887 20.127 20.128 36.089 43.97 47.887 71.53 11.804 27.56 17.702 56.516 17.702 86.878 0 30.359-5.9 59.315-17.702 86.874-11.793 27.558-27.76 51.403-47.887 71.525-20.128 20.127-43.97 36.094-71.53 47.893-27.56 11.8-56.516 17.702-86.873 17.702z m0 0"  horiz-adv-x="1024" />

    
    <glyph glyph-name="erji" unicode="&#58909;" d="M66.56 140.288c0 89.088 56.32 123.904 100.352 138.24-8.192-43.008-12.288-92.16-12.288-138.24 0-47.104 4.096-98.304 13.312-142.336-27.648 6.144-51.2 17.408-67.584 35.84-37.888 40.96-33.792 103.424-33.792 106.496m857.088-107.52c-16.384-18.432-38.912-29.696-67.584-35.84 9.216 44.032 13.312 95.232 13.312 142.336 0 46.08-4.096 94.208-12.288 137.216 43.008-14.336 100.352-50.176 100.352-140.288 0 1.024 4.096-61.44-33.792-103.424m-151.552-88.064c-13.312 20.48-33.792 88.064-33.792 195.584s20.48 175.104 33.792 195.584c13.312-20.48 33.792-88.064 33.792-195.584 0-107.52-20.48-175.104-33.792-195.584m-520.192 390.144c13.312-20.48 33.792-88.064 33.792-195.584 0-107.52-20.48-174.08-33.792-195.584-13.312 20.48-33.792 88.064-33.792 195.584s20.48 175.104 33.792 195.584m-63.488-407.552c15.36-32.768 35.84-53.248 63.488-53.248 71.68 0 97.28 143.36 97.28 265.216 0 122.88-25.6 266.24-97.28 266.24-27.648 0-49.152-21.504-63.488-55.296-18.432-3.072-36.864-8.192-55.296-15.36v204.8c8.192 33.792 81.92 287.744 375.808 287.744 294.912 0 365.568-256 372.736-288.768v-199.68c-15.36 5.12-30.72 9.216-47.104 12.288-15.36 33.792-35.84 55.296-63.488 55.296-71.68 0-97.28-143.36-97.28-266.24s25.6-266.24 97.28-266.24c27.648 0 48.128 20.48 63.488 53.248 57.344 4.096 103.424 24.576 136.192 61.44 56.32 63.488 50.176 150.528 50.176 151.552 0 78.848-32.768 131.072-74.752 163.84V542.72l-1.024 7.168c-1.024 3.072-75.776 345.088-436.224 345.088S70.656 556.032 69.632 552.96l-1.024-253.952c-37.888-32.768-66.56-81.92-66.56-154.624 0-4.096-6.144-91.136 50.176-153.6 32.768-38.912 78.848-59.392 136.192-63.488"  horiz-adv-x="1024" />

    
    <glyph glyph-name="jia" unicode="&#58910;" d="M137.3 383.1c0.1 33.7 27.2 60.7 61.1 61.2l576.2-0.4c33.4 0.2 60.7-27.1 60.7-60.7-0.2-33.7-27.2-60.7-60.7-60.7H197.9c-33.5 0.1-60.2 27.7-60.6 60.6zM485.9 732.4c33.6 0 60.6-27.1 61-61.1l-0.4-576.3c0.3-33.4-27-60.6-60.7-60.6-33.6 0.2-60.6 27.2-60.6 60.8V671.8c0.1 33.6 27.7 60.3 60.7 60.6z"  horiz-adv-x="1024" />

    
    <glyph glyph-name="page-right" unicode="&#58885;" d="M676.8 383.87199999999996c0-0.003 0-0.006 0-0.008 0-9.137-3.829-17.37900001-9.97-23.20999999l-265.614-251.27700001c-5.72-5.415-13.464-8.743-21.984-8.744-17.678 0-32.008 14.33-32.008 32.008 0 9.15700001 3.84499999 17.416 10.00900001 23.25l241.10299999 228.04500001-241.088 228.22399999c-6.165 5.855-10.001 14.113-10.001 23.266 0 8.516 3.32 16.256 8.736 21.998 12.145 12.784 32.434 13.36 45.233 1.264l265.6-251.52c6.155-5.844 9.984-14.086 9.984-23.223 0-0.025 0-0.05100001 0-0.076z"  horiz-adv-x="1024" />

    
    <glyph glyph-name="arrow-left-21" unicode="&#58886;" d="M772.77251434 406.92863846l-270.82088471 266.02535248c-11.45350456 11.19704247-29.97362137 11.19704247-41.43021583 0-5.30382156-5.17790794-8.59225273-12.3997879-8.59225273-20.38873673 0-7.98894883 3.28920363-15.21160126 8.5868454-20.38332939l252.02344895-247.46506691-252.01881409-247.55699158c-11.45659447-11.25034332-11.45659447-29.43675041 0-40.68400383 11.45659447-11.25034332 29.97748375-11.25034332 41.43021583 0l270.82320213 265.92879296c6.30263328 6.14118576 8.8301754 14.29389954 8.30720902 22.31220245 0.52373886 7.96191216-2.00303078 16.07368469-8.30720901 22.21100807zM568.86815262 384.71685791c0.57626724 7.96577454-1.99994087 16.07368469-8.20833206 22.21100807l-270.82551957 266.02535248c-11.45350456 11.19704247-29.97362137 11.19704247-41.5252304 0-11.45427704-11.25034332-11.35771751-29.5279026 0-40.77747345l252.11614608-247.4588871-252.11614608-247.55699158c-11.35771751-11.25034332-11.45427704-29.43675041 0-40.68400383 11.55238152-11.25034332 30.07249832-11.25034332 41.5252304 0l270.82474709 265.92879296c6.20839119 6.14041328 8.7845993 14.29389954 8.20833206 22.31220244zM568.86815262 384.71685791z"  horiz-adv-x="1024" />

    
    <glyph glyph-name="tubiaozhuzhuangtu" unicode="&#58914;" d="M72.0855 795.6685c0 1.3107 0.4997 2.6204 1.4991 3.6209 1.0004 0.9994 2.3101 1.4991 3.6209 1.4991h32.392192c1.3107 0 2.6204-0.4997 3.6209-1.4991 0.9994-1.0004 1.4991-2.3101 1.4991-3.6209v-790.685696h861.740032c1.3097 0 2.6214-0.4997 3.6198-1.5002 1.0004-0.9994 1.5002-2.3101 1.5002-3.6198v-32.392192c0-1.3097-0.4997-2.6214-1.5002-3.6198-0.9994-1.0004-2.3101-1.5002-3.6198-1.5002H72.085504V795.66848zM384.724 785.4285c0 3.9311 1.4991 7.8623 4.4995 10.8605 2.9993 2.9993 6.9304 4.4995 10.8605 4.4995H539.89376c3.9311 0 7.8623-1.4991 10.8605-4.4995 2.9993-2.9993 4.4995-6.9304 4.4995-10.8605v-723.6014080000001H384.723968V785.42848zM171.562 572.2665c0 3.9311 1.4991 7.8623 4.4995 10.8605 2.9993 2.9993 6.9304 4.4995 10.8605 4.4995h139.809792c3.9311 0 7.8623-1.4991 10.8605-4.4995 2.9993-2.9993 4.4995-6.9304 4.4995-10.8605v-510.440448H171.561984V572.266496zM597.887 359.10350000000005c0 3.9311 1.5002 7.8623 4.4995 10.8605s6.9304 4.4995 10.8605 4.4995h139.809792c3.9311 0 7.8623-1.5002 10.8605-4.4995s4.4995-6.9304 4.4995-10.8605v-297.27744H597.886976V359.10348799999997zM811.049 145.94150000000002c0 3.9311 1.5002 7.8623 4.4995 10.8605s6.9304 4.4995 10.8605 4.4995h139.809792c3.9311 0 7.8623-1.5002 10.8605-4.4995s4.4995-6.9304 4.4995-10.8605v-84.11648H811.04896V145.9415039999999z"  horiz-adv-x="1024" />

    
    <glyph glyph-name="huakuai1" unicode="&#58915;" d="M64.447 385.32c0 37.937 7.432 74.177 22.295 108.72099999 14.856 34.54 34.765 64.299 59.711 89.28600001 24.941 24.97999999 54.702 44.882 89.28 59.706 34.578 14.82699999 70.818 22.254 108.72 22.293L680.53 665.326c37.94099999 0 74.181-7.43 108.72-22.29299999 34.54-14.859 64.304-34.765 89.28-59.70600001 24.985-24.946 44.887-54.706 59.711-89.286 14.828-34.58 22.25500001-70.818 22.294-108.72 0.04-37.903-7.391-74.14399999-22.294-108.721-14.897-34.579-34.8-64.34-59.71-89.28-24.903-24.947-54.669-44.848-89.281-59.711-34.612-14.86400001-70.858-22.295-108.72-22.295l-336.075 0c-37.942 0-74.182 7.431-108.722 22.295-34.543 14.863-64.303 34.764-89.284 59.71-24.98 24.942-44.883 54.70199999-59.711 89.27999999-14.825 34.578-22.252 70.819-22.28999999 108.72100001zM680.582 161.26999999999998c30.36399999 0 59.319 5.902 86.879 17.702 27.553 11.8 51.397 27.765 71.525 47.893 20.127 20.12200001 36.094 43.966 47.893 71.525 11.798 27.559 17.702 56.52 17.702 86.87400001 0 30.362-5.904 59.318-17.70200001 86.87699999-11.8 27.56-27.765 51.403-47.89299999 71.53-20.128 20.123-43.97 36.09-71.52500001 47.888-27.559 11.799-56.52 17.702-86.87899999 17.702-30.357 0-59.313-5.903-86.873-17.702-27.558-11.798-51.402-27.765-71.53-47.887-20.127-20.128-36.08900001-43.97-47.887-71.53-11.804-27.55999999-17.70200001-56.516-17.702-86.87799999 0-30.359 5.9-59.31500001 17.702-86.87400001 11.793-27.55800001 27.76-51.403 47.887-71.525 20.128-20.127 43.97-36.094 71.53-47.893 27.56-11.8 56.516-17.70200001 86.873-17.702z m0 0"  horiz-adv-x="1024" />

    
    <glyph glyph-name="qian1" unicode="&#58916;" d="M715.50713153 635.2355720200001L512 431.72729828 308.4905829 635.2355720200001c-9.25364812 9.25364812-24.25669227 9.25250587-33.51033927-0.00114222-9.25250587-9.25250587-9.25250587-24.25554894 0-33.50919705l179.81372581-179.81258248-121.29488476 0c-13.08695918 0-23.69454905-10.60987432-23.69454905-23.69454904s10.60873209-23.69454905 23.69454905-23.69454906l155.20055219 0 0-99.51756292L346.53234255 275.00598924999997c-13.08695918 0-23.69454905-10.60987432-23.69454906-23.69454905s10.60873209-23.69454905 23.69454906-23.69454907l142.16843655 0 0-146.90666101c0-13.08467473 10.60987432-23.69454905 23.69454905-23.69454906s23.69454905 10.60987432 23.69454905 23.69454906L536.0898772 227.61689113l142.16729435 0c13.08581696 0 23.69454905 10.60987432 23.69454904 23.69454907S691.34298739 275.00598924999997 678.25717155 275.00598924999997L536.0898772 275.00598924999997l0 99.51756292 155.19940997 0c13.08581696 0 23.69454905 10.60987432 23.69454906 23.69454906s-10.60987432 23.69454905-23.69454906 23.69454904L569.20488834 421.91264916l179.81258246 179.81258247c9.25364812 9.25364812 9.25364812 24.25669227 0 33.51033929C739.76153826 644.48922013 724.76306521 644.48922013 715.50713153 635.2355720200001zM512 882.77151348c-275.02381143 0-498.77151348-223.74770206-498.77151348-498.77037015 0-275.02381143 223.74770206-498.77151348 498.77151348-498.77151347s498.77151348 223.74770206 498.77151348 498.77151347C1010.77151348 659.02381143 787.02381143 882.77151348 512 882.77151348zM512-67.38127204c-248.8933099 0-451.38241539 202.48910438-451.38241539 451.38241537S263.1066901 835.38127204 512 835.38127204s451.38241539-202.48796214 451.38241539-451.38127204S760.89216766-67.38127204 512-67.38127204z"  horiz-adv-x="1024" />

    
    <glyph glyph-name="down" unicode="&#58887;" d="M511.872 219.20000000000005a32 32 0 0 0-23.232 9.984l-251.264 265.6a32 32 0 0 0 46.528 43.968l228.03200001-241.088 228.22399999 241.088a32.064 32.064 0 0 0 45.248 1.28c12.8-12.16 13.376-32.448 1.28-45.248l-251.52-265.6a32 32 0 0 0-23.296-9.984z"  horiz-adv-x="1024" />

    
    <glyph glyph-name="shumiaoeps" unicode="&#58935;" d="M433.3 2.2c-8.6 0-16.7 3.4-22.8 9.5-6.1 6.1-9.4 14.2-9.3 22.9v5.8c0.5 60.8 1.8 222.4 12 280.5v0.2c5.5 31.5 10.8 61.4 19.7 91.5-3.5 0.4-7.3 1-11.4 1.5-10.1 1.4-21.6 3-33.8 3.9-78.7 5.7-129.1 35.7-164.1 61.1-41.5 30.1-66 69.8-76.9 124.9-3.3 16.8-2.6 32.2-1.5 46.5 3.6 47.9 33.4 86 81.7 104.6 13.9 5.3 31.6 8 52.7 8 16 0 30.1-1.6 38-3.1 15.7-3 31.1-7.8 45.9-14.3l0.5-0.2c14.5-7 30.1-16.4 46.4-28.2 16.2-11.7 32.1-25.2 47.1-40.3 15-15 29-31.2 41.7-48.1 6.7-8.9 12.9-18 18.5-27 6.3 8.1 13.4 16 21.2 23.6 15 14.7 31.8 28 49.9 39.5 18 11.5 37.2 21.2 57 28.9 20.2 7.9 40.4 12.8 59.9 14.6 7.9 0.8 15.7 1.2 23.1 1.2 19.8 0 38.1-2.9 54.2-8.7 22.1-7.9 41-19.2 56-33.6 17.5-16.8 28.6-33.9 33.7-52.3 14.9-53.6-4.3-100.8-27.3-127.1-33.2-38-76-65.8-127.3-82.6-37.7-12.4-79.1-18.6-123.2-18.6-24.5 0-44.5 2-56.9 3.7-5.6-27.9-10.4-58.2-14.5-90.4-4.8-38.2-7.2-77.8-7.2-117.9 0-18.8 0.4-37.8 1.2-56.6 0.8-19 1.8-36.5 2.8-52v-0.1c0.7-12.1 1.6-24.2 2.6-35.9 0.8-8.8-2.2-17.7-8.2-24.2-6-6.6-14.5-10.4-23.4-10.5l-58-0.7z m-153.7 727c-16.7 0-30.7-2-40.6-5.8-48.7-18.7-58.5-55.2-60-75.4-0.9-12.5-1.6-24.8 0.9-37.3 9.3-46.9 28.9-78.9 63.5-104.1 31.4-22.8 76.5-49.6 146.6-54.7 13.4-1 25.9-2.7 36-4.1 7.5-1 14-1.9 18.7-2.3 8.1-0.5 15.4-4.7 19.9-11.4 4.6-6.7 5.8-15 3.3-22.8-9.9-31-15.5-62.6-21.4-96.2v-0.2c-9.7-55.3-11.1-220.6-11.5-274.9v-3.9l53.7 0.6c-0.9 11.3-1.8 22.9-2.5 34.5-1.1 15.8-2.1 33.6-2.9 52.8-0.8 19.3-1.2 38.8-1.2 58.1 0 41.5 2.5 82.6 7.5 122.1 4.5 35.6 9.9 69.1 16.2 99.5 2.6 12.5 13.7 21.5 26.4 21.5 1.4 0 2.8-0.1 4.2-0.3 10.1-1.6 31.1-4.2 58.4-4.2 66.9 0 160.2 15.5 224.9 89.6 5.2 6 14.8 19 20.3 38.8 5.2 18.7 5.1 37.8-0.2 56.9-3.5 12.4-11.5 24.5-24.5 37-11.6 11.1-26.3 19.9-43.9 26.2-12.5 4.5-26.9 6.7-42.8 6.7-6.3 0-13-0.4-19.8-1.1h-0.2c-16.3-1.5-33.4-5.7-50.6-12.4-17.7-6.9-35-15.7-51.2-26-16.1-10.2-31-22-44.3-35.1-9.3-9.1-17.4-18.6-24.1-28.3-4.9-7.1-12.9-11.3-21.5-11.3-9.4 0-18.1 5.1-22.8 13.3-6.3 11.1-13.8 22.4-22.2 33.6-11.7 15.7-24.7 30.6-38.6 44.5-13.8 13.8-28.2 26.1-43 36.7-14.6 10.5-28.4 18.9-41 25-12.3 5.4-25.2 9.4-38.2 11.8-5.8 1.2-17.8 2.6-31.5 2.6z"  horiz-adv-x="1024" />

    
    <glyph glyph-name="edit" unicode="&#58911;" d="M924 8H100c-19.9 0-36-16.1-36-36s16.1-36 36-36h824c19.9 0 36 16.1 36 36s-16.1 36-36 36zM296 126l235.5 99.7c3.8 1.6 7.2 3.9 10.2 6.8l397.2 397.2c28.1 28.1 28.3 73.9 0.2 102L859.8 811c-28.1 28.1-73.9 27.9-102-0.2L360.6 413.6c-2.9-2.9-5.2-6.4-6.8-10.2L254 168c-5.6-13.2-1.7-26.5 6.8-35.1s21.9-12.5 35.2-6.9z m512.7 633.9l0.2 0.2 79.2-79.2-0.2-0.2-62-62-79.2 79.2 62 62zM417 368.2L695.8 647l79.2-79.2L496.2 289l-137.4-58.2L417 368.2z"  horiz-adv-x="1024" />

    
    <glyph glyph-name="zuo" unicode="&#58973;" d="M512.003938-128c282.781538 0 512 229.218462 512 512s-229.218462 512-512 512S0.003938 666.781538 0.003938 384s229.218462-512 512-512zM349.589662 409.670892l219.502276 201.196308c12.996923 14.647138 34.044062 14.647138 47.033108 0s12.996923-38.415754 0-53.078646l-195.981784-174.639262 195.973907-174.6432c12.996923-14.690462 12.996923-38.439385 0-53.082584s-34.048-14.678646-47.029169 0l-219.498338 201.168738c-12.996923 14.647138-12.996923 38.419692 0 53.070769z m0 0"  horiz-adv-x="1024" />

    
    <glyph glyph-name="you" unicode="&#58975;" d="M511.998031-127.996062c-282.780451 0-511.998031 229.21758-511.998031 511.998031S229.21758 896 511.998031 896s511.998031-229.21758 511.998031-511.998031-229.21758-511.998031-511.998031-511.998031z m162.390021 537.664886l-219.477802 201.195534c-12.996873 14.647082-34.047869 14.647082-47.036865 0s-12.996873-38.415606 0-53.078442l195.984969-174.63859-195.977092-174.642528c-12.996873-14.690405-12.996873-38.439237 0-53.08238s34.043931-14.67859 47.028988 0l219.477802 201.167964c12.996873 14.647082 12.996873 38.419545 0 53.070565z m0 0"  horiz-adv-x="1024" />

    
    <glyph glyph-name="arrow-2" unicode="&#58939;" d="M512 128l341.357714 512H170.642286z"  horiz-adv-x="1024" />

    
    <glyph glyph-name="jiang" unicode="&#58917;" d="M3.190031 434.04361361l861.30841101 0L864.49844201 354.29283461 3.190031 354.29283461l0 79.750779zM823.02803698 513.79439262L1023.99999999 395.76323961l-200.97196301-121.22118402 0 239.25233703z"  horiz-adv-x="1024" />

    
    <glyph glyph-name="star" unicode="&#59043;" d="M511.39190674 670.36001587l78.18118286-158.59945679c11.17144776-22.33547974 32.0171814-37.22964477 55.84487915-40.95071411l175.72412109-25.31991577-126.58227539-124.3460083c-17.87036133-17.1246643-25.31414795-41.69723511-21.59143066-66.27062988l29.78503418-174.97842407-156.36813355 83.39447021c-10.41998291 5.9581604-22.33630372 8.18948364-34.99337768 8.18948364-11.9163208 0-23.82687378-2.97619629-34.99832153-8.18948364L319.28469849 80.64056396000001l29.78668213 174.9776001c4.46511841 23.82769776-3.72436523 49.14678955-21.59719849 66.27062989L200.89685059 445.4899292l175.72247314 25.31991577c24.5725708 3.72106933 45.41912842 18.61523438 56.59140015 40.95071411l78.18118286 158.59945679m0 116.15652466c-5.2116394 0-10.42575073-2.97702026-13.40112305-8.18948365L379.59716797 537.8195800799999c-2.23132324-4.4684143-6.69891357-7.44378662-11.16567993-8.18948365L103.35391235 490.91400146C90.69354248 489.42425537 86.22595215 474.5309143 95.15948487 465.59573364l192.1088562-186.8939209c3.72106933-3.72354126 5.2116394-8.19030762 4.4651184-13.40359496l-45.41912841-264.3310547c-1.49057007-9.68005372 5.9581604-17.12878418 14.89334106-17.12878417 2.23132324 0 4.46759033 0.74487305 6.69891358 1.49139404l237.52716063 124.3460083c2.23626709 1.49221802 4.46759033 1.49221802 6.70385743 1.49221802 2.23132324 0 4.46759033-0.74652099 6.69891358-1.49221802l237.52716063-124.3460083c2.23544312-1.49139404 4.46759033-1.49139404 6.70303346-1.49139404 8.93518067 0 16.37896729 7.44873047 14.89251709 17.12878418l-45.42324829 264.33105468c-0.74569703 4.46759033 0.74487305 9.68005372 4.46759032 13.40359497l192.10638429 186.8939209c8.93518067 8.93518067 3.72271729 23.82852172-8.18865968 25.31826782l-265.0767517 38.71609497c-5.21246338 0.74569703-8.93518067 3.72106933-11.17062378 8.18948365L524.79385376 778.32705688c-2.97619629 5.21246338-8.18865967 8.18948364-13.40194702 8.18948365z m0 0"  horiz-adv-x="1024" />

    
    <glyph glyph-name="shoucang" unicode="&#59038;" d="M780.781204-67.774828c-12.045034 0.516216-23.745925 3.441438-34.414384 8.94774L511.316576 58.698034 274.545613-58.655016c-24.262141-12.733322-53.686439-10.668459-75.883717 5.33423-22.36935 16.690976-33.554025 44.738699-28.908083 72.270206L218.450167 272.067216 32.268349 445.687784c-19.616199 19.960343-27.187363 48.868425-20.132415 75.883717 8.259452 27.187363 31.489161 46.975634 59.708957 50.589144L330.468987 619.308352l115.804403 235.050243c12.217106 25.1225 37.339607 41.125189 65.215258 41.641405 28.047723 0 53.342295-16.174761 65.215258-41.641405l115.632331-235.050243L950.788261 574.053436c27.703579-3.785582 50.417073-23.745925 57.816166-50.589144 8.94774-26.671148 1.892791-56.095446-18.067552-75.883717L804.355057 272.067216l46.975634-253.117796c4.990086-27.703579-6.194589-55.751302-28.908082-72.270206a65.215258 65.215258 0 0 0-41.641405-14.454042z"  horiz-adv-x="1024" />

    
    <glyph glyph-name="weixin" unicode="&#58880;" d="M791.35499326 550.58524155a319.65591687 319.65591687 0 0 0 35.3138865-2.17487439C794.94606494 696.0994937400001 637.01985639 805.875 456.74808181 805.875 255.21311923 805.875 90.125 668.51399717 90.125 494.07897775c0-100.6814979 54.91810053-183.36717691 146.67755686-247.49055945l-36.66938902-110.26105966 128.16583677 64.26500153c45.86455426-9.1041243 82.65533203-18.41056237 128.46930826-18.41056238 11.50154352 0 22.91204608 0.56647925 34.22139175 1.45666022a273.12372647 273.12372647 0 0 0-11.30934566 76.81857687c0 160.17189203 137.57343255 290.14843854 311.69486616 290.14843772z m-197.12452067 99.39680529c27.60572764 0 45.88478614-18.20824859 45.88478613-45.74316632s-18.2790585-45.88478614-45.88478613-45.88478613-55.04960439 18.41056237-55.0496044 45.88478613 27.57538064 45.74316632 55.0496044 45.74316632zM337.64590561 558.34397846c-27.47422375 0-55.20134016 18.41056237-55.20133933 45.88478612s27.7372315 45.74316632 55.20133933 45.74316633 45.77351331-18.20824859 45.77351331-45.74316633-18.28917361-45.88478614-45.77351331-45.88478613z m0-1e-8M1125.97202063 264.83712982c0 146.56628403-146.67755686 266.04274082-311.41162656 266.04274081-174.43501941 0-311.82637006-119.47645679-311.82636922-266.04274081 0-146.81917666 137.38123388-266.04274082 311.82636922-266.04274081 36.50753814 0 73.33877801 9.20528119 110.00816785 18.40044644l100.56010996-55.06983545L997.50271238 53.74283651999997c73.59167065 55.20134016 128.46930826 128.41872939 128.46930825 211.0942933zM713.45403757 310.71180002000006c-18.20824859 0-36.66938901 18.20824859-36.66938983 36.68962088 0 18.26894257 18.41056237 36.65927307 36.66938983 36.65927307 27.7372315 0 45.89490207-18.40044644 45.89490125-36.65927307 0-18.52183521-18.20824859-36.68962088-45.89490125-36.68962088z m201.66646646 0c-18.12732276 0-36.41649719 18.20824859-36.41649636 36.68962088 0 18.26894257 18.28917361 36.65927307 36.41649636 36.65927307 27.4843397 0 45.88478614-18.40044644 45.88478613-36.65927307 0-18.52183521-18.41056237-36.68962088-45.88478613-36.68962088z m0 0"  horiz-adv-x="1257" />

    
    <glyph glyph-name="QQkongjian" unicode="&#58982;" d="M512 896a512 512 0 1 1 512-512A512 512 0 0 1 512 896zM389.851429 291.84c13.531429 14.994286 186.88 112.64 186.88 112.64l-226.377143 30.72 302.811428 3.291429a14.628571 14.628571 0 0 0 0-21.577143c-10.605714-12.434286-171.52-122.514286-171.52-122.514286l182.857143-14.628571L658.285714 310.857143l146.285715 142.628571-202.971429 29.622857L512 657.554286l-90.697143-173.348572-201.874286-29.257143L365.714286 310.857143l-36.571429-200.411429 182.857143 95.451429 182.857143-95.451429-29.988572 163.84-275.017142-12.068571a19.017143 19.017143 0 0 0 0 27.794286z"  horiz-adv-x="1024" />

    
    <glyph glyph-name="qq" unicode="&#58904;" d="M512 896C229.12 896 0 666.88 0 384c0-282.88 229.12-512 512-512s512 229.12 512 512C1024 666.88 794.88 896 512 896zM782.08 225.27999999999997c-11.52-6.4-30.72 7.68-48.64 34.56-6.4-28.16-24.32-53.76-48.64-74.24 25.6-8.96 42.24-25.6 42.24-42.24 0-29.44-46.08-52.48-102.4-52.48-51.2 0-93.44 19.2-101.12 43.52-2.56 0-10.24 0-12.8 0-7.68-24.32-49.92-43.52-101.12-43.52-56.32 0-102.4 23.04-102.4 52.48 0 17.92 16.64 33.28 42.24 42.24-24.32 20.48-42.24 46.08-48.64 74.24-17.92-25.6-37.12-39.68-48.64-34.56-17.92 8.96-14.08 57.6 7.68 107.52 16.64 39.68 39.68 69.12 57.6 75.52 0 2.56 0 5.12 0 7.68 0 15.36 3.84 29.44 11.52 40.96 0 1.28 0 1.28 0 2.56 0 7.68 1.28 14.08 5.12 19.2C340.48 583.6800000000001 408.32 665.6 518.4 665.6c110.08 0 177.92-81.92 183.04-185.6 2.56-5.12 5.12-12.8 5.12-19.2 0-1.28 0-1.28 0-2.56 7.68-11.52 11.52-25.6 11.52-40.96 0-2.56 0-5.12 0-7.68 17.92-6.4 40.96-35.84 57.6-75.52C796.16 282.88 800 234.24 782.08 225.27999999999997z"  horiz-adv-x="1024" />

    
    <glyph glyph-name="arrow-up" unicode="&#58918;" d="M512 639.99999999l-341.357714-511.99999998L853.357714 128.00000001z"  horiz-adv-x="1024" />

    
    <glyph glyph-name="arrow-left" unicode="&#58919;" d="M192.00000002 384l511.99999998-341.357714L704 725.357714z"  horiz-adv-x="1024" />

    
    <glyph glyph-name="jiucuo" unicode="&#58922;" d="M981.33276 384.000125c0 259.205937-210.126949 469.332885-469.332885 469.332885S42.66699 643.206062 42.66699 384.000125 252.793938-85.33276 511.999875-85.33276 981.33276 124.794188 981.33276 384.000125zM127.999969 384.000125c0 212.076948 171.922958 383.999906 383.999906 383.999906s383.999906-171.922958 383.999906-383.999906-171.922958-383.999906-383.999906-383.999906-383.999906 171.922958-383.999906 383.999906z m823.162799-499.502878c16.662996-16.662996 43.677989-16.662996 60.339985 0 16.662996 16.661996 16.662996 43.676989 0 60.339985L840.836795 115.503191c-16.662996 16.662996-77.002981-43.676989-60.339986-60.339986l170.665959-170.665958zM609.829851 542.170086l-255.999937-255.999937c-16.661996-16.662996-16.661996-43.676989 0-60.339985 16.661996-16.661996 43.677989-16.661996 60.339985 0l255.999937 255.999937c16.661996 16.662996 16.661996 43.676989 0 60.339985-16.661996 16.661996-43.677989 16.661996-60.339985 0z m-255.999937-60.339985l255.999937-255.999937c16.661996-16.661996 43.677989-16.661996 60.339985 0 16.661996 16.662996 16.661996 43.676989 0 60.339985l-255.999937 255.999937c-16.661996 16.661996-43.677989 16.661996-60.339985 0-16.661996-16.662996-16.661996-43.676989 0-60.339985z"  horiz-adv-x="1024" />

    
    <glyph glyph-name="zan" unicode="&#58920;" d="M884.875894 472.856747L646.970506 472.856747c92.185562 340.464205-63.516616 357.853247-63.516616 357.853247-65.993017 0-52.312436-52.18247599-57.3031-60.881602 0-166.502152-176.849824-296.971645-176.849824-296.971645l1e-8-472.171899c0-46.607504 63.516616-63.393819 88.43309799-63.393819l357.452111 0c33.641191 0 61.036122 88.224344 61.036122 88.224344 88.43412199 300.70569 88.434122 390.177444 88.43412199 390.177444C944.657442 477.820805 884.875894 472.856747 884.875894 472.856747L884.875894 472.856747 884.875894 472.856747zM884.875894 472.856747M251.671415 472.700181L109.214912 472.700181c-29.420053 0-29.873378-28.89612-29.873378-28.89612l29.420053-476.202703c0-30.30930601 30.36149501-30.309306 30.36149499-30.309306L262.42022301-62.70794799999999c25.68600901 0 25.458835 20.049638 25.458835 20.049638L287.87905801 436.588729C287.879058 473.162716 251.671415 472.700181 251.671415 472.700181L251.671415 472.700181 251.671415 472.700181zM251.671415 472.700181"  horiz-adv-x="1024" />

    
    <glyph glyph-name="arrow-left1" unicode="&#58921;" d="M831.99999999 384l-511.99999999 341.357714L320 42.64228600000001z"  horiz-adv-x="1024" />

    
    <glyph glyph-name="zhexiantu-xianxing" unicode="&#58923;" d="M192 64V768h-64v-768h768v64zM605.6 256l-184 161.6L299.2 264l-50.4 40 164.8 206.4 184.8-163.2L847.2 644l48.8-40.8z"  horiz-adv-x="1024" />

    
    <glyph glyph-name="phoneon" unicode="&#59056;" d="M999.806812 121.471064c40.319849-48.319819 21.951918-121.471544 7.99997-135.679491-13.887948-14.463946-12.863952-21.37592-79.551702-81.919693-67.135748-60.927772-201.343245-19.199928-262.271016 0-60.991771 19.391927-226.55915 125.31153-379.774576 270.910985C131.07407 322.302311 50.88237 506.045622 18.050494 605.949248c-32.831877 100.095625-12.287954 136.319489 0 170.111362 12.159954 33.919873 34.68787 62.591765 101.11962 100.735622C185.473866 915.004089 209.601775 885.948198 226.561712 876.796232c17.023936-8.959966 91.263658-73.983723 117.055561-135.423492 25.599904-61.43977 13.43995-100.927622-6.399976-119.615552-19.711926-18.55993-33.791873-35.711866-50.111812-47.231822-16.319939-11.391957-19.839926-27.903895-17.343935-59.711777 2.303991-31.99988 117.503559-156.543413 140.223474-179.519326 22.655915-23.039914 172.671352-178.239332 224.703157-190.143287 52.159804-11.711956 71.039734 10.879959 76.671713 17.087936 5.631979 6.015977 26.175902 33.919873 49.407814 53.375799 23.359912 19.327928 85.759678 14.079947 101.119621 3.199988 15.423942-10.879959 97.599634-48.767817 137.919483-97.279635z m-284.734932 348.350694c-12.799952 0-24.191909 8.959966-26.8159 22.015918-16.511938 82.303691-76.351714 115.967565-76.991711 116.287564a27.391897 27.391897 0 0 0 26.303901 47.99982c3.391987-1.791993 82.943689-46.463826 104.319609-153.599424a27.391897 27.391897 0 0 0-26.815899-32.703878z m127.99952-13.951948a27.391897 27.391897 0 0 0-27.263898 24.639908c-7.487972 74.239722-37.119861 135.93549-87.871671 183.487312-38.527856 36.031865-75.519717 50.175812-75.903715 50.303811a27.327898 27.327898 0 1 0 18.879929 51.391808c1.919993-0.639998 46.079827-17.151936 92.415654-59.839776 42.62384-39.231853 95.807641-109.24759 107.007598-219.839176a27.391897 27.391897 0 0 0-27.327897-30.143887zM994.622831 469.30976c-16.383939 0-29.695889 12.159954-29.759888 27.199898-0.319999 110.079587-43.967835 201.599244-129.599514 271.99898A436.798362 436.798362 0 0 1 703.295924 842.74836c-15.551942 4.799982-23.93591 20.223924-18.81593 34.55987 5.183981 14.207947 21.951918 21.951918 37.50386 17.279935 3.135988-0.959996 76.927712-23.807911 151.039433-83.967685a415.678441 415.678441 0 0 0 103.679612-122.62354c31.359882-57.279785 47.359822-121.599544 47.615821-191.359282 0-15.103943-13.24795-27.327898-29.631889-27.391898h-0.064z"  horiz-adv-x="1025" />

    
    <glyph glyph-name="gouwuche1" unicode="&#58924;" d="M995.100444 698.823111a36.636444 36.636444 0 0 1-29.013333 14.336H199.054222L166.855111 866.9297779999999A36.522667 36.522667 0 0 1 131.072 896H36.579556a36.522667 36.522667 0 1 1 0-73.159111h64.796444l139.377778-665.770667a36.522667 36.522667 0 0 1 35.84-29.070222h550.855111a36.522667 36.522667 0 1 1 0 73.159111H306.289778l-22.983111 109.681778H877.795556c16.497778 0 31.004444 11.150222 35.271111 27.136l88.405333 329.102222a36.522667 36.522667 0 0 1-6.257778 31.744zM849.692444 384H267.946667l-53.589334 256h704L849.692444 384z m-502.272-292.579556c-50.403556 0-91.420444-40.96-91.420444-91.420444 0-50.403556 40.96-91.420444 91.420444-91.420444s91.420444 40.96 91.420445 91.420444c0 50.403556-40.96 91.420444-91.420445 91.420444z m0-128a36.579556 36.579556 0 1 0 0.056889 73.216 36.579556 36.579556 0 0 0 0-73.216z m402.318223 128c-50.460444 0-91.477333-40.96-91.477334-91.420444a91.534222 91.534222 0 0 1 182.840889 0c0 50.403556-40.96 91.420444-91.363555 91.420444z m0-128a36.579556 36.579556 0 1 0 0 73.216 36.579556 36.579556 0 0 0 0-73.216z"  horiz-adv-x="1024" />

    
    <glyph glyph-name="jiang-copy" unicode="&#58925;" d="M1020.809969 333.95638640000004l-861.30841101-1e-8L159.50155799 413.70716539 1020.809969 413.70716539l0-79.75077899zM200.97196302 254.20560737999995L1e-8 372.23676039l200.97196301 121.22118402 0-239.25233703z"  horiz-adv-x="1024" />

    
    <glyph glyph-name="zhuyi" unicode="&#58926;" d="M512.081907 895.836186a511.918093 511.918093 0 1 1 511.918093-511.918093 511.918093 511.918093 0 0 1-511.918093 511.918093z m0-795.889298a56.802432 56.802432 0 1 0 56.802432 56.802432 56.802432 56.802432 0 0 0-56.802432-56.638618z m28.380739 230.240282c0-31.452248-13.06415-56.802432-28.380739-56.802432s-28.380739 25.309231-28.380739 56.802432l-28.380739 252.518957a56.802432 56.802432 0 1 0 113.604863 0z"  horiz-adv-x="1024" />

    
    <glyph glyph-name="check-box" unicode="&#59029;" d="M303.616 423.936C281.6 445.44 245.76 445.44 223.744 423.936c-22.016-22.016-22.016-57.856 0-79.36l186.368-186.368c23.552-23.552 61.952-22.016 82.944 4.096l310.272 372.736c19.968 24.064 16.896 59.392-7.68 79.36-24.064 19.968-59.392 16.896-79.36-7.68l-271.36-325.12-141.312 142.336zM139.776 880.64h744.96C952.832 880.64 1008.64 824.832 1008.64 756.224v-744.96c0-68.608-55.808-124.416-124.416-124.416H139.776C71.168-112.64 15.36-56.832 15.36 11.264V756.224C15.36 824.832 71.168 880.64 139.776 880.64z"  horiz-adv-x="1024" />

    
    <glyph glyph-name="weibiaoti--" unicode="&#58927;" d="M936.502613 740.020907c-69.751467-2.853547-137.885013 0.768-203.741866-9.78944-108.755627-17.435307-178.005333-113.02912-178.62656-234.973867-0.907947-178.295467-0.866987-356.590933-1.2288-534.889813-0.02048-9.335467 0-18.670933 0-29.989547H481.5872v27.29984c0 114.312533 0.242347 228.625067-0.075093 342.944427-0.372053 135.062187-96.426667 231.748267-231.406934 233.055573-50.148693 0.488107-100.304213 0.078507-152.8832 0.078507 4.88448-83.329707 48.909653-138.68032 110.902614-184.818347 64.252587-47.8208 138.36288-40.188587 212.947626-40.07936v-69.771947C172.52352 202.171733-5.04832 365.21984 28.3648 607.986347h75.482453c45.216427 0 90.42944-0.187733 135.642454 0.034133 91.53536 0.453973 170.06592-29.945173 233.15456-97.481387 1.52576-1.634987 3.93216-2.450773 5.4272-3.345066 5.311147 29.42976 7.826773 59.14624 16.206506 87.108266 38.396587 128.146773 155.347627 214.30272 288.79872 214.55872 74.079573 0.14336 148.159147 0.023893 221.938347 0.023894 34.6112-208.677547-110.946987-404.33664-389.563733-370.08384v71.939413c31.552853 0 62.06464-0.587093 92.542293 0.1024 105.219413 2.38592 212.637013 96.897707 228.36224 200.7552 1.122987 7.437653 0.146773 15.18592 0.146773 28.422827z"  horiz-adv-x="1024" />

    
    <glyph glyph-name="shoucang1" unicode="&#58929;" d="M773.458-109.43c-14.403 0-30.592 4.132-45.599 11.638L513.567 9.39 297.948-97.618c-13.655-7.27-29.286-11.09-45.225-11.09a96.164 96.164 0 0 0-57.549 18.842c-30.177 22.64-45.64 61.85-38.502 97.561l44.099 228.772L31.744 394.004a104.059 104.059 0 0 0-26.281 100.66l0.338 1.162c12.288 36.828 42.772 62.633 79.734 67.584l234.839 42.7L425.779 820.189c16.932 33.895 51.37 55.675 87.788 55.675 37.99 0 73.318-22.6 88.13-56.29l105.068-213.4L941.64 565.11a95.672 95.672 0 0 0 78.264-68.373 98.97 98.97 0 0 0-24.474-101.002l-0.578-0.579-168.55-158.72L868.9 7.255c6.86-36.649-7.716-73.672-38.062-96.742a90.409 90.409 0 0 0-57.38-19.943z m-259.81 196.055l227.667-113.853c6.686-3.37 14.392-5.489 19.665-5.489 8.116 0 15.652 2.499 21.187 7.117l1.03 0.85c12.937 9.707 19.245 25.134 16.414 40.238l-45.814 246.804 181.212 170.65c11.126 11.28 14.93 27.433 9.995 42.286l-0.497 1.562a37.31 37.31 0 0 1-30.971 27.003l-1.034 0.163L661.76 547.79 548.91 777.01c-5.478 12.805-20.347 22.098-35.359 22.098-14.75 0-28.861-9.236-36.009-23.496L365.414 547.891l-252.062-45.788c-15.31-1.92-27.203-12.088-32.697-27.945-3.901-14.49 0.722-31.949 11.372-42.834l181.422-169.057-47.61-246.933c-2.863-14.28 3.9-30.714 16.409-40.1 6.272-4.715 14.397-7.316 22.917-7.316 6.569 0 12.866 1.531 18.294 4.45l0.783 0.46 229.407 113.797z"  horiz-adv-x="1024" />

    
    <glyph glyph-name="add1" unicode="&#58984;" d="M972.8 435.2h-409.6v409.6a51.2 51.2 0 0 1-102.4 0v-409.6h-409.6a51.2 51.2 0 1 1 0-102.4h409.6v-409.6a51.2 51.2 0 1 1 102.4 0v409.6h409.6a51.2 51.2 0 1 1 0 102.4z"  horiz-adv-x="1024" />

    
    <glyph glyph-name="gengduo" unicode="&#58912;" d="M1536 384m-320 0a320 320 0 1 1 640 0 320 320 0 1 1-640 0ZM512 384m-192 0a192 192 0 1 1 384 0 192 192 0 1 1-384 0ZM2560 384m-192 0a192 192 0 1 1 384 0 192 192 0 1 1-384 0Z"  horiz-adv-x="3072" />

    
    <glyph glyph-name="jinritoutiao" unicode="&#59912;" d="M1024.2816 729.472v-633.3696c-11.0592-0.5376-22.0928-0.9728-33.152-1.5616-18.688-0.9984-37.4528-2.0224-56.1408-3.1488-17.1776-0.9728-34.3808-2.0992-51.5328-3.0464l-86.9632-4.7104c-17.664-0.9984-35.4048-2.0992-53.0432-3.1488l-82.304-4.6592-54.656-3.0976c-26.9312-1.5616-53.8624-3.0976-80.7424-4.7104-17.664-1.024-35.3792-2.0992-53.0688-3.072-28.4672-1.5872-56.96-3.1232-85.4272-4.736-17.6896-0.9472-35.3536-2.0992-53.0688-3.0976-28.4672-1.5872-56.96-3.0464-85.4272-4.6848-17.664-0.9728-35.3536-2.0992-53.0432-3.072-28.4672-1.5872-56.9856-3.0976-85.4528-4.7104-17.664-0.9984-35.3536-2.0992-53.0432-3.1232-19.0208-0.9472-37.9648-1.9712-56.9344-2.9952V675.0464c6.4 0.512 12.7488 1.152 19.1488 1.5104l90.88 4.7104c18.9952 0.9728 37.9648 2.048 56.96 3.072 29.2352 1.5616 58.496 3.1488 87.7824 4.6848 20.0192 1.0496 40.0384 2.048 60.0576 3.1232l87.7824 4.6592c18.4832 1.024 36.9408 2.1248 55.424 3.0976 20.2752 1.0752 40.5504 2.1248 60.8512 3.1488 20.2752 1.024 40.5504 2.0224 60.8512 3.1232l86.9376 4.6592c19.2512 1.0496 38.5024 2.0992 57.7536 3.0976a22443.776 22443.776 0 0 0 60.1088 3.1488c20.5568 1.024 41.0624 2.048 61.5936 3.1232l60.1088 3.1232c19.2512 0.9984 38.5024 2.0736 57.7536 3.0976L1024.2816 729.472z m-234.2912-267.4176c9.088 4.3264 16.9216 7.9872 24.704 11.776 28.16 13.7216 56.1152 27.6736 84.4032 41.1136 8.448 4.0192 12.8 8.704 11.904 18.9184-1.152 12.6208-0.3072 25.3952-0.3072 38.0928v35.1488c-6.5024-0.7936-11.9552-1.7664-17.5104-2.0736-28.7488-1.664-57.472-3.1232-86.1952-4.7616-16.896-0.9216-33.792-2.2272-50.7392-3.0464-24.6528-1.1776-49.3568-2.1248-74.0608-3.1744-2.5856-0.128-5.1456-0.6144-7.7056-0.512-4.1472 0.1792-8.7808-0.3584-12.3392 1.2288-18.56 8.2432-36.8128 17.1008-55.9872 26.0608-1.024-1.28-2.304-2.6112-3.2512-4.1472-23.296-37.1968-46.4128-74.4704-70.0672-111.4624-3.2512-5.0944-0.9472-6.1952 2.7648-7.552 16.4352-5.9392 33.1264-11.1872 49.2032-17.9456 8.4224-3.5584 11.264-0.3584 15.1296 6.1952 10.1376 17.2288 21.12 34.0736 31.9488 50.9184 1.2032 1.8432 3.5584 3.8912 5.5552 4.096 8.3712 0.9472 16.8448 1.2288 25.3184 1.7408 17.4336 1.024 34.816 2.2016 52.2752 3.072 24.1408 1.1776 48.3584 2.1248 72.5248 3.2 2.7648 0.128 5.5808 0.768 8.3456 0.9216 12.7232 0.7424 25.4208 1.3824 37.6576 2.048 3.0976-8.192-0.9728-11.1104-6.9632-14.0032-33.2032-16.0512-66.1504-32.5376-99.3536-48.5888a13.8752 13.8752 0 0 0-9.7536-0.7936c-21.6576 7.8848-43.1104 16.2816-64.64 24.448-16.9984 6.4256-17.024 6.4-27.1104-8.576-1.3312-1.8944-2.688-3.7376-3.9424-5.632-5.6064-8.6528-11.2128-17.3056-16.9472-26.2912l50.5344-18.7136c-28.2624-14.1056-55.7056-27.8528-83.2256-41.3184-3.2768-1.5872-7.424-1.6896-11.2128-1.9456-8.8064-0.6144-17.664-0.896-26.4448-1.3056v-48.128c15.4624 0 30.5408-0.1536 45.6448 0.1536a24.8576 24.8576 0 0 1 10.1376 2.6624c37.4272 18.3296 74.88 36.6592 112.1024 55.3728 13.2352 6.656 25.0624 9.3696 40.192 2.7136 28.4672-12.4928 58.1376-22.3744 87.552-32.512 14.72-5.0944 28.6464-13.7728 45.3376-11.7248 6.4 0.768 12.8 1.024 19.1488 1.5872 6.8352 0.5888 13.568 1.28 20.1472 1.8944v50.1248c-6.528-0.768-12.3392-1.8944-18.1504-2.0224-6.912-0.128-14.1312-0.5376-20.6336 1.28-12.1856 3.4048-23.936 8.2432-35.7632 12.672-16.3584 6.0416-32.6656 12.2112-50.2272 18.7904z m-466.304 111.36v-213.3248c-19.84-1.408-38.784-2.9184-57.728-4.0448a9676.032 9676.032 0 0 0-86.2464-4.7104c-14.6688-0.6912-29.3632-0.896-44.032-1.6128-9.1648-0.4864-18.2784-1.536-27.52-2.2784v-49.9712l148.3776 8.2176c-18.5088-24.5504-36.8128-48.3072-54.4768-72.5504-7.2704-10.0096-15.0016-15.7696-28.416-14.4384-12.1856 1.1776-24.6528-0.5376-36.992-1.28-8.9344-0.5376-17.792-1.536-27.4176-2.3808 0-15.1552-0.1536-30.3872 0.2304-45.568 0.0512-1.5872 3.456-4.6336 5.1456-4.5312 29.4144 1.7408 58.8288 3.9424 88.2176 5.8112 13.6192 0.8192 27.2896 0.9984 40.9344 1.6896a8.7808 8.7808 0 0 1 5.4016 3.0976c8.9344 11.4432 17.5616 23.0656 26.3168 34.6624 21.5808 28.3392 43.0592 56.8064 64.896 84.9408 5.8368 7.5264 10.1888 16.8448 22.1696 17.3568 28.7744 1.2032 57.4976 3.072 86.2464 4.608 12.0832 0.5888 24.192 0.8192 36.2752 1.7664 1.92 0.128 5.1456 2.9696 5.1968 4.6848 0.4352 14.0032 0.3584 28.0064 0.0512 42.0096-0.0512 1.3824-2.6624 3.84-4.0192 3.7888-16.1792-0.5888-32.3072-1.5104-48.4608-2.4832-12.7744-0.7936-25.5232-1.7664-39.296-2.7136v213.3504l-74.8544-4.096z m210.5344-276.5568c2.6624 0 4.6592-0.1024 6.6304 0.0512 15.3856 0.9472 30.6688 2.2528 46.0544 2.9952 15.4624 0.768 30.9248 1.0752 46.3872 1.6384 2.7904 0.1024 5.6064 0.6912 8.3968 0.7936 14.7456 0.8448 29.5168 1.5872 45.2096 2.4576v-106.752l76.1344 4.1984v106.2912c6.9376 0.8192 12.9792 1.8176 19.0464 2.2528 17.664 1.152 35.3792 2.304 53.0176 3.0976 24.704 1.2032 49.408 2.1504 74.0864 3.1744 1.9968 0.0768 3.9168 0.384 5.8624 0.5376v50.9696c-13.9008-1.152-27.2896-2.56-40.7552-3.2-24.448-1.3056-48.8448-2.1504-73.2928-3.2512-2.5088-0.1024-4.992-0.8448-7.552-0.9984-10.0864-0.5888-20.096-1.1008-30.7456-1.6896V384l-76.2624-4.608v-24.0384c-20.0448-1.408-39.2448-2.9696-58.4448-4.0192-24.6528-1.28-49.3568-1.9968-74.0352-3.2512-6.5536-0.3072-13.056-1.4336-19.6864-2.1504v-49.1008h-0.0512z m-175.3856 4.6336l-0.8192-2.9184 58.9312-115.6352 82.688 4.5312c-0.1792 1.92-0.0768 2.5088-0.2816 2.9184-17.2544 33.9968-34.688 67.84-51.712 101.9392-4.096 8.1408-9.088 12.2624-18.7392 10.9056-9.3696-1.3568-18.9184-1.5104-28.416-1.6896-13.8752-0.2048-27.7504-0.0512-41.6512-0.0512z m174.6688-112.0512c4.1728 0 7.0144-0.1024 9.8304 0.0512 19.5584 0.9984 38.9888 2.3552 58.496 2.8928 5.4784 0.1536 7.9104 1.9456 10.2912 6.8096 11.648 23.1424 23.9104 46.0288 35.8144 68.992 3.7376 7.1168 7.2192 14.3872 11.4688 22.8864-7.9104-0.7424-14.208-1.6128-20.5568-1.9456-14.9504-0.6656-29.8496-0.9728-44.7488-1.6128-6.9888-0.3584-12.6464-2.0992-15.5392-10.1376-3.0464-8.2432-8.0896-15.7696-12.2624-23.7056L533.504 189.44z m395.8016 22.656c-0.2304 1.2288-0.0768 2.6624-0.6656 3.6352-16.4608 27.392-32.9472 54.784-49.4848 82.0992-2.2272 3.7376-4.864 5.7344-9.7792 5.376-18.4576-1.3312-36.9152-2.1504-55.3728-3.2512-4.352-0.3072-8.6784-0.9472-13.7984-1.5616 17.536-29.1072 34.304-57.1392 51.3792-85.0688 1.408-2.2272 4.4544-4.9152 6.7072-4.9152a1098.24 1098.24 0 0 1 48.6656 1.4848c7.3472 0.3072 14.6176 1.408 22.3488 2.2016z m-647.552 171.0848c-0.1792 0.9984-0.1024 1.6128-0.3584 1.9712-15.7952 20.0192-31.9744 39.7312-47.232 60.1344-7.3984 9.856-15.2832 15.2064-28.2624 13.6192-16.0256-1.9968-32.256-2.2528-48.384-3.3536-5.6832-0.384-11.3152-1.1008-17.0752-1.664 0.256-1.6128 0.1792-2.2272 0.4608-2.56 16.1536-20.4032 32.5888-40.5504 48.4096-61.2096 6.6816-8.704 13.5424-13.9008 25.5744-12.6208 19.6608 2.0736 39.5008 2.2784 59.264 3.4816 2.5856 0.1792 5.12 1.4592 7.6032 2.2016z m0.896 93.2864c-2.5088 3.5328-4.3008 6.272-6.2976 8.8064-13.2096 16.8192-26.7264 33.3568-39.6032 50.4064-8.2176 10.88-15.8976 20.0448-32.2048 16.7936-12.4672-2.5088-25.6256-1.28-38.4512-1.9968-8.5248-0.512-17.024-1.536-26.6496-2.4064 19.9168-25.4208 39.1168-50.048 58.5728-74.4448 1.28-1.6128 4.5568-2.432 6.8096-2.3296 16.3584 0.7936 32.6912 1.8944 49.0752 2.9952 9.1648 0.5888 18.304 1.3824 28.7488 2.176z"  horiz-adv-x="1024" />

    
    <glyph glyph-name="bangzhu" unicode="&#59520;" d="M512-93.867C248.107-93.867 34.133 120.107 34.133 384S248.107 861.867 512 861.867 989.867 647.893 989.867 384 775.893-93.867 512-93.867z m0 63.68c228.693 0 414.187 185.387 414.187 414.187S740.693 798.187 512 798.187 97.813 612.693 97.813 384 283.307-30.187 512-30.187zM524.373 617.6c43.52 0 78.827-11.52 106.027-36.053 27.2-23.787 40.747-56.427 40.747-97.174 0-33.28-8.854-61.12-25.814-82.88-6.08-7.466-25.173-25.173-57.066-53.013-12.907-10.88-22.4-23.147-28.587-35.307-7.467-13.546-10.88-28.586-10.88-44.906v-11.52h-72.747v11.52c0 25.173 4.054 46.933 13.547 64.533 8.853 18.987 34.667 46.933 76.8 84.267l11.52 12.906c12.267 15.68 18.987 31.894 18.987 49.6 0 23.787-6.827 42.134-19.734 55.68-13.546 13.547-33.28 20.374-57.813 20.374-30.613 0-53.013-9.494-66.56-29.227-12.267-16.32-18.347-39.467-18.347-69.333h-71.36c0 49.6 14.294 88.32 42.774 116.906 28.8 29.334 68.266 43.627 118.506 43.627z m-12.16-397.547c14.294 0 26.454-4.053 36.054-13.546 9.493-8.854 14.293-20.374 14.293-34.667 0-14.293-5.44-25.813-14.933-35.307-9.494-8.853-21.76-13.546-35.307-13.546s-25.813 4.8-35.307 14.293c-9.493 9.493-14.293 21.12-14.293 34.667 0 14.293 4.8 25.813 14.293 34.666 9.28 9.387 21.547 13.44 35.2 13.44z"  horiz-adv-x="1024" />

    


  </font>
</defs>
</svg>
